<?xml version="1.0" encoding="UTF-8"?>
<svg version="1.1" xmlns="http://www.w3.org/2000/svg" width="600" height="496">
<path d="M0 0 C198 0 396 0 600 0 C600 163.68 600 327.36 600 496 C402 496 204 496 0 496 C0 332.32 0 168.64 0 0 Z " fill="#010101" transform="translate(0,0)"/>
<path d="M0 0 C0.66 0 1.32 0 2 0 C3.75814686 6.36263799 4.67742319 12.61721428 5.40234375 19.171875 C5.52457809 20.23882599 5.64681244 21.30577698 5.77275085 22.40505981 C6.16629833 25.85279526 6.55210038 29.30134508 6.9375 32.75 C7.20781399 35.13561986 7.47848588 37.52119919 7.74951172 39.90673828 C9.83197792 58.28736199 11.87443434 76.67234586 13.70663452 95.07980347 C14.04835683 98.4999381 14.39611465 101.91944865 14.74432373 105.33892822 C14.9114135 106.996304 15.07563987 108.65397162 15.2366333 110.31195068 C16.04780794 129.44445353 16.04780794 129.44445353 25 145 C28.578124 146.86039621 31.81311408 147.33588777 35.8125 147.625 C37.27623047 147.73714844 37.27623047 147.73714844 38.76953125 147.8515625 C39.87361328 147.92503906 39.87361328 147.92503906 41 148 C40.67 148.99 40.34 149.98 40 151 C35.77084853 151.02953635 31.54172428 151.04697584 27.3125 151.0625 C26.13365234 151.07087891 24.95480469 151.07925781 23.74023438 151.08789062 C15.77850456 151.10970358 7.92770775 150.73348042 0 150 C-0.33 149.01 -0.66 148.02 -1 147 C-0.34 147 0.32 147 1 147 C0.08999792 136.29109215 -0.82693319 125.58278925 -1.75 114.875 C-1.85175915 113.69449759 -1.85175915 113.69449759 -1.95557404 112.49014664 C-4.04309379 88.29755379 -6.25804116 64.12874548 -9 40 C-15.96774296 54.32337114 -22.88779658 68.66228752 -29.5625 83.125 C-34.87205759 94.62648501 -40.32148111 106.05443837 -45.83984375 117.45703125 C-47.97248033 121.86386564 -50.08914943 126.27781074 -52.19140625 130.69921875 C-52.69655762 131.76100342 -53.20170898 132.82278809 -53.72216797 133.91674805 C-54.67482324 135.92126044 -55.62576486 137.92658848 -56.57470703 139.93286133 C-56.9973584 140.82126709 -57.42000977 141.70967285 -57.85546875 142.625 C-58.22309326 143.40101563 -58.59071777 144.17703125 -58.96948242 144.9765625 C-60 147 -60 147 -62 150 C-65.35797993 148.62234455 -66.67726467 147.40184438 -68.3125 144.1796875 C-68.73813232 143.3544458 -69.16376465 142.5292041 -69.60229492 141.67895508 C-70.0635376 140.7536499 -70.52478027 139.82834473 -71 138.875 C-71.50055908 137.89233154 -72.00111816 136.90966309 -72.5168457 135.8972168 C-73.67700912 133.61154973 -74.83162467 131.32378795 -75.97900391 129.03173828 C-77.85094256 125.29243039 -79.73836835 121.561077 -81.62692261 117.83013916 C-83.38064811 114.36248431 -85.12877741 110.89203093 -86.87524414 107.42071533 C-87.73506656 105.71174828 -88.59571349 104.00319575 -89.45727539 102.29510498 C-94.53847601 92.207515 -99.41765315 82.0606016 -103.98625183 71.72944641 C-106.48149342 66.08995123 -109.14671924 60.58378379 -112.00390625 55.1171875 C-113 53 -113 53 -113 51 C-112.29875 50.814375 -111.5975 50.62875 -110.875 50.4375 C-107.3795511 48.68977555 -105.69274027 46.51304151 -103.33203125 43.4609375 C-102.89246094 42.97882813 -102.45289063 42.49671875 -102 42 C-101.34 42 -100.68 42 -100 42 C-93.94375532 54.04338169 -87.98857093 66.1351541 -82.06420898 78.24389648 C-80.56957594 81.29804096 -79.07292667 84.35119177 -77.57617188 87.40429688 C-71.62353287 99.55933338 -65.7576526 111.75137916 -60 124 C-57.62989522 121.04871182 -55.99573145 118.11930297 -54.42578125 114.6796875 C-53.93166748 113.60509277 -53.43755371 112.53049805 -52.9284668 111.42333984 C-52.12856323 109.66691162 -52.12856323 109.66691162 -51.3125 107.875 C-50.1402357 105.32189636 -48.96441523 102.77043302 -47.7890625 100.21875 C-47.48213974 99.55120697 -47.17521698 98.88366394 -46.85899353 98.19589233 C-43.34846898 90.56697199 -39.76880214 82.97088007 -36.1875 75.375 C-35.51450192 73.94615698 -34.84156936 72.5172831 -34.16870117 71.08837891 C-31.05985265 64.48752369 -27.94760103 57.88828002 -24.83262634 51.29031372 C-23.43782697 48.33541796 -22.04387475 45.38012342 -20.65036011 42.42462158 C-19.97065481 40.98307749 -19.29074586 39.54162941 -18.61062622 38.10028076 C-13.94191154 28.20205339 -9.34215342 18.27661609 -4.91650391 8.26660156 C-4.37388916 7.05182129 -4.37388916 7.05182129 -3.8203125 5.8125 C-3.51367676 5.11769531 -3.20704102 4.42289063 -2.89111328 3.70703125 C-2 2 -2 2 0 0 Z " fill="#C0A14D" transform="translate(365,170)"/>
<path d="M0 0 C4.62659066 1.98553891 7.3820189 5.38903781 9.625 9.875 C10.18330074 14.53360779 10.23686329 17.87562329 7.75 21.9375 C5.625 23.875 5.625 23.875 3.625 23.875 C3.480625 24.679375 3.33625 25.48375 3.1875 26.3125 C2.625 28.875 2.625 28.875 1.625 29.875 C-0.32916157 30.08499945 -2.28900299 30.24332634 -4.25 30.375 C-7.56218188 30.59847251 -10.21876196 30.82292065 -13.375 31.875 C-14.125 29.1875 -14.125 29.1875 -14.375 25.875 C-12.45896476 22.55878516 -11.32708276 21.15629718 -7.625 20.0625 C-6.8825 20.000625 -6.14 19.93875 -5.375 19.875 C-5.375 18.885 -5.375 17.895 -5.375 16.875 C-3.20625748 17.38103992 -1.37532373 17.87483813 0.625 18.875 C0.13 17.39 0.13 17.39 -0.375 15.875 C-2.39008358 15.14176204 -2.39008358 15.14176204 -4.375 14.875 C-4.375 12.565 -4.375 10.255 -4.375 7.875 C0.375 8.75 0.375 8.75 2.625 9.875 C1.81634485 7.73011076 1.81634485 7.73011076 -0.1953125 7.05859375 C-8.8869078 3.83972553 -8.8869078 3.83972553 -17.5625 5.4375 C-20.62592513 8.09246845 -22.32794218 10.4107483 -24.375 13.875 C-23.74271484 13.13443359 -23.74271484 13.13443359 -23.09765625 12.37890625 C-22.54980469 11.73824219 -22.00195312 11.09757813 -21.4375 10.4375 C-20.61958984 9.48037109 -20.61958984 9.48037109 -19.78515625 8.50390625 C-19.00704305 7.60508851 -18.21563472 6.71563472 -17.375 5.875 C-10.15907351 5.40945636 -10.15907351 5.40945636 -7.375 7.0625 C-6.06605832 9.43495679 -6.15879825 11.2085118 -6.375 13.875 C-6.91125 13.545 -7.4475 13.215 -8 12.875 C-11.07840819 11.57882813 -13.05216638 11.47625997 -16.375 11.875 C-20.00186095 13.68843048 -21.92548642 14.82512935 -23.5390625 18.59375 C-24.4375771 22.12062975 -24.57413131 25.11756603 -24.5 28.75 C-24.47292969 30.47863281 -24.47292969 30.47863281 -24.4453125 32.2421875 C-24.42210937 33.11101562 -24.39890625 33.97984375 -24.375 34.875 C-22.725 35.535 -21.075 36.195 -19.375 36.875 C-19.38660156 37.48988281 -19.39820313 38.10476562 -19.41015625 38.73828125 C-19.41917969 39.54652344 -19.42820313 40.35476562 -19.4375 41.1875 C-19.44910156 41.98800781 -19.46070313 42.78851563 -19.47265625 43.61328125 C-19.47157855 46.04361334 -19.47157855 46.04361334 -18.375 48.875 C-17.900625 48.05 -17.42625 47.225 -16.9375 46.375 C-16.421875 45.55 -15.90625 44.725 -15.375 43.875 C-15.045 43.875 -14.715 43.875 -14.375 43.875 C-14.148125 45.1125 -13.92125 46.35 -13.6875 47.625 C-12.82285848 51.58742194 -11.5028385 55.10064407 -9.875 58.8125 C-7.57294579 64.10247118 -6.21928259 69.1792428 -5.375 74.875 C-5.045 74.875 -4.715 74.875 -4.375 74.875 C-4.045 76.525 -3.715 78.175 -3.375 79.875 C-2.715 79.215 -2.055 78.555 -1.375 77.875 C1.25 77.75 1.25 77.75 3.625 77.875 C3.35171875 78.54273438 3.0784375 79.21046875 2.796875 79.8984375 C1.68237314 82.72927223 0.64912757 85.58280803 -0.37915039 88.44580078 C-6.94306992 106.52397392 -6.94306992 106.52397392 -13.25 112.9375 C-16.29464267 117.14627075 -15.82239522 120.84428928 -15.375 125.875 C-11.04935795 127.45755197 -6.946279 128.32644652 -2.375 128.875 C-2.375 129.535 -2.375 130.195 -2.375 130.875 C-16.895 130.875 -31.415 130.875 -46.375 130.875 C-43.53011496 128.97840998 -40.78869043 127.6715444 -37.6875 126.25 C-26.18281279 120.52544549 -19.5587521 111.15570171 -15.1015625 99.32421875 C-13.62306055 94.34023636 -13.7705883 89.95978615 -15.625 85.0625 C-17.75724137 81.15671095 -17.75724137 81.15671095 -21.375 78.875 C-24.68727544 78.20991089 -27.99137416 77.875 -31.375 77.875 C-31.705 78.865 -32.035 79.855 -32.375 80.875 C-32.705 79.885 -33.035 78.895 -33.375 77.875 C-31.32266315 75.6272025 -30.36832739 74.8727758 -27.375 73.875 C-30.30943402 74.14156572 -30.30943402 74.14156572 -33.375 74.875 C-34.035 75.865 -34.695 76.855 -35.375 77.875 C-36.035 76.555 -36.695 75.235 -37.375 73.875 C-40.04701812 77.21502264 -41.67750129 79.60075745 -41.875 83.9375 C-41.32515913 88.26749689 -40.46637898 89.87454393 -37.375 92.875 C-34.32516004 94.39991998 -31.7326631 94.11062548 -28.375 93.875 C-26.35021537 92.76850331 -26.35021537 92.76850331 -25.375 90.875 C-25.375 89.555 -25.375 88.235 -25.375 86.875 C-26.035 86.545 -26.695 86.215 -27.375 85.875 C-27.375 86.865 -27.375 87.855 -27.375 88.875 C-28.695 88.545 -30.015 88.215 -31.375 87.875 C-30.715 86.555 -30.055 85.235 -29.375 83.875 C-24.5 84.75 -24.5 84.75 -23.375 85.875 C-23.10185185 91.61111111 -23.10185185 91.61111111 -23.375 93.875 C-24.035 94.535 -24.695 95.195 -25.375 95.875 C-25.375 96.865 -25.375 97.855 -25.375 98.875 C-28.82110906 100.59805453 -32.59962175 100.254435 -36.375 99.875 C-39.9375 98.375 -39.9375 98.375 -42.375 96.875 C-40.077779 98.61771938 -37.77633271 100.27411152 -35.375 101.875 C-39.25146817 102.32575211 -40.88063328 102.24290082 -44.0625 99.875 C-48.28528751 94.39678917 -50.23127337 88.84751173 -49.375 81.875 C-47.66860731 75.39070779 -44.73131348 71.33117441 -38.9375 67.91015625 C-33.64485559 65.77212154 -28.36878373 65.80966675 -23.00390625 67.71875 C-19.93574375 69.20497918 -17.21231483 70.98345678 -14.375 72.875 C-19.77355203 67.81385747 -25.16818077 64.40475245 -32.125 61.875 C-35.01823148 60.58911934 -36.44475862 59.40428181 -38.375 56.875 C-39.27688 54.21521831 -39.82180334 51.64098331 -40.375 48.875 C-37.735 48.875 -35.095 48.875 -32.375 48.875 C-32.045 48.215 -31.715 47.555 -31.375 46.875 C-30.80910156 47.2359375 -30.24320313 47.596875 -29.66015625 47.96875 C-28.92667969 48.4328125 -28.19320312 48.896875 -27.4375 49.375 C-26.70660156 49.8390625 -25.97570312 50.303125 -25.22265625 50.78125 C-23.58943196 51.95990056 -23.58943196 51.95990056 -22.375 51.875 C-23.44881517 50.09837883 -24.534458 48.32890311 -25.625 46.5625 C-26.22828125 45.57636719 -26.8315625 44.59023437 -27.453125 43.57421875 C-29.25340898 41.04577112 -30.79340585 39.548467 -33.375 37.875 C-33.375 38.865 -33.375 39.855 -33.375 40.875 C-43.54121253 38.00760672 -43.54121253 38.00760672 -46.375 33.875 C-47.125 30.625 -47.125 30.625 -47.375 27.875 C-51.83 26.885 -51.83 26.885 -56.375 25.875 C-52.39696313 23.22297542 -49.13185451 22.6786161 -44.375 22.875 C-39.88726037 24.12159434 -35.70110107 25.54889893 -32.375 28.875 C-32.28863281 27.9571875 -32.20226562 27.039375 -32.11328125 26.09375 C-30.78628028 14.50379658 -28.01821671 8.67112263 -19.14453125 1.22265625 C-13.8965822 -2.77412614 -6.04449964 -1.96100179 0 0 Z " fill="#B4954C" transform="translate(254.375,189.125)"/>
<path d="M0 0 C0.66 0 1.32 0 2 0 C1.35557256 4.92822538 -0.72119555 8.97729423 -2.8671875 13.39453125 C-3.25791946 14.21076462 -3.64865143 15.02699799 -4.05122375 15.8679657 C-5.32095257 18.51850792 -6.59805582 21.16542754 -7.875 23.8125 C-9.62129243 27.45308746 -11.36353292 31.09560762 -13.10546875 34.73828125 C-13.5335231 35.63221588 -13.96157745 36.52615051 -14.40260315 37.44717407 C-17.74180409 44.43058109 -20.99363545 51.44879406 -24.1875 58.5 C-27.30579981 65.36797642 -30.5092924 72.16926879 -33.9309082 78.89135742 C-37.53348458 85.98470927 -40.92345765 93.17964755 -44.3203125 100.37329102 C-44.99320312 101.79146118 -44.99320312 101.79146118 -45.6796875 103.23828125 C-46.27885986 104.507323 -46.27885986 104.507323 -46.89013672 105.80200195 C-48 108 -48 108 -50 111 C-53.35797993 109.62234455 -54.67726467 108.40184438 -56.3125 105.1796875 C-56.73813232 104.3544458 -57.16376465 103.5292041 -57.60229492 102.67895508 C-58.0635376 101.7536499 -58.52478027 100.82834473 -59 99.875 C-59.50055908 98.89233154 -60.00111816 97.90966309 -60.5168457 96.8972168 C-61.67700912 94.61154973 -62.83162467 92.32378795 -63.97900391 90.03173828 C-65.85094256 86.29243039 -67.73836835 82.561077 -69.62692261 78.83013916 C-71.38064811 75.36248431 -73.12877741 71.89203093 -74.87524414 68.42071533 C-75.73506656 66.71174828 -76.59571349 65.00319575 -77.45727539 63.29510498 C-82.53847601 53.207515 -87.41765315 43.0606016 -91.98625183 32.72944641 C-94.48149342 27.08995123 -97.14671924 21.58378379 -100.00390625 16.1171875 C-101 14 -101 14 -101 12 C-100.29875 11.814375 -99.5975 11.62875 -98.875 11.4375 C-95.3795511 9.68977555 -93.69274027 7.51304151 -91.33203125 4.4609375 C-90.89246094 3.97882813 -90.45289063 3.49671875 -90 3 C-89.34 3 -88.68 3 -88 3 C-81.94375532 15.04338169 -75.98857093 27.1351541 -70.06420898 39.24389648 C-68.56957594 42.29804096 -67.07292667 45.35119177 -65.57617188 48.40429688 C-59.62353287 60.55933338 -53.7576526 72.75137916 -48 85 C-45.62989522 82.04871182 -43.99573145 79.11930297 -42.42578125 75.6796875 C-41.93102295 74.60372314 -41.43626465 73.52775879 -40.92651367 72.41918945 C-40.1275769 70.66481567 -40.1275769 70.66481567 -39.3125 68.875 C-38.150667 66.34402513 -36.98529623 63.8146821 -35.8203125 61.28515625 C-35.51504135 60.62112289 -35.2097702 59.95708954 -34.89524841 59.27293396 C-31.20917346 51.26272142 -27.44794925 43.28799147 -23.6875 35.3125 C-22.71631412 33.25135335 -21.74524118 31.19015369 -20.7743988 29.12884521 C-20.14572868 27.79528233 -19.51615463 26.46214516 -18.88563538 25.12945557 C-17.17334685 21.50750181 -15.4811604 17.87745041 -13.81103516 14.23583984 C-13.44903519 13.45194382 -13.08703522 12.66804779 -12.71406555 11.86039734 C-12.0139419 10.3433945 -11.31874399 8.82410627 -10.6290741 7.30232239 C-8.22483217 2.11241608 -8.22483217 2.11241608 -6 1 C-5.71125 1.969375 -5.4225 2.93875 -5.125 3.9375 C-4.35785318 7.10664203 -4.35785318 7.10664203 -2 8 C-1.7834375 7.13375 -1.7834375 7.13375 -1.5625 6.25 C-1.04166667 4.16666667 -0.52083333 2.08333333 0 0 Z " fill="#DECC6B" transform="translate(353,209)"/>
<path d="M0 0 C4.62659066 1.98553891 7.3820189 5.38903781 9.625 9.875 C10.18330074 14.53360779 10.23686329 17.87562329 7.75 21.9375 C5.625 23.875 5.625 23.875 3.625 23.875 C3.480625 24.679375 3.33625 25.48375 3.1875 26.3125 C2.625 28.875 2.625 28.875 1.625 29.875 C-0.32916157 30.08499945 -2.28900299 30.24332634 -4.25 30.375 C-7.56218188 30.59847251 -10.21876196 30.82292065 -13.375 31.875 C-14.125 29.1875 -14.125 29.1875 -14.375 25.875 C-12.45896476 22.55878516 -11.32708276 21.15629718 -7.625 20.0625 C-6.8825 20.000625 -6.14 19.93875 -5.375 19.875 C-5.375 18.885 -5.375 17.895 -5.375 16.875 C-3.20625748 17.38103992 -1.37532373 17.87483813 0.625 18.875 C0.13 17.39 0.13 17.39 -0.375 15.875 C-2.39008358 15.14176204 -2.39008358 15.14176204 -4.375 14.875 C-4.375 12.565 -4.375 10.255 -4.375 7.875 C0.375 8.75 0.375 8.75 2.625 9.875 C1.81634485 7.73011076 1.81634485 7.73011076 -0.1953125 7.05859375 C-8.8869078 3.83972553 -8.8869078 3.83972553 -17.5625 5.4375 C-20.62592513 8.09246845 -22.32794218 10.4107483 -24.375 13.875 C-23.74271484 13.13443359 -23.74271484 13.13443359 -23.09765625 12.37890625 C-22.54980469 11.73824219 -22.00195312 11.09757813 -21.4375 10.4375 C-20.61958984 9.48037109 -20.61958984 9.48037109 -19.78515625 8.50390625 C-19.00704305 7.60508851 -18.21563472 6.71563472 -17.375 5.875 C-10.15907351 5.40945636 -10.15907351 5.40945636 -7.375 7.0625 C-6.06605832 9.43495679 -6.15879825 11.2085118 -6.375 13.875 C-6.91125 13.545 -7.4475 13.215 -8 12.875 C-11.07840819 11.57882813 -13.05216638 11.47625997 -16.375 11.875 C-20.00186095 13.68843048 -21.92548642 14.82512935 -23.5390625 18.59375 C-24.4375771 22.12062975 -24.57413131 25.11756603 -24.5 28.75 C-24.47292969 30.47863281 -24.47292969 30.47863281 -24.4453125 32.2421875 C-24.42210937 33.11101562 -24.39890625 33.97984375 -24.375 34.875 C-22.725 35.535 -21.075 36.195 -19.375 36.875 C-19.38660156 37.48988281 -19.39820313 38.10476562 -19.41015625 38.73828125 C-19.41917969 39.54652344 -19.42820313 40.35476562 -19.4375 41.1875 C-19.44910156 41.98800781 -19.46070313 42.78851563 -19.47265625 43.61328125 C-19.47157855 46.04361334 -19.47157855 46.04361334 -18.375 48.875 C-17.900625 48.05 -17.42625 47.225 -16.9375 46.375 C-16.421875 45.55 -15.90625 44.725 -15.375 43.875 C-15.045 43.875 -14.715 43.875 -14.375 43.875 C-14.148125 45.1125 -13.92125 46.35 -13.6875 47.625 C-12.83818362 51.59260938 -11.4717652 54.95710359 -9.75 58.625 C-6.90438261 65.10065716 -6.86893111 70.90249532 -7.375 77.875 C-9.68743525 75.56256475 -10.19636188 73.87450911 -11.3125 70.8125 C-15.1763348 61.27940759 -23.91448645 42.60525678 -33.375 37.875 C-33.375 38.865 -33.375 39.855 -33.375 40.875 C-43.54121253 38.00760672 -43.54121253 38.00760672 -46.375 33.875 C-47.125 30.625 -47.125 30.625 -47.375 27.875 C-51.83 26.885 -51.83 26.885 -56.375 25.875 C-52.39696313 23.22297542 -49.13185451 22.6786161 -44.375 22.875 C-39.88726037 24.12159434 -35.70110107 25.54889893 -32.375 28.875 C-32.28863281 27.9571875 -32.20226562 27.039375 -32.11328125 26.09375 C-30.78628028 14.50379658 -28.01821671 8.67112263 -19.14453125 1.22265625 C-13.8965822 -2.77412614 -6.04449964 -1.96100179 0 0 Z " fill="#B5974B" transform="translate(254.375,189.125)"/>
<path d="M0 0 C0.66 0.33 1.32 0.66 2 1 C2 1.99 2 2.98 2 4 C2.515625 3.34 3.03125 2.68 3.5625 2 C6.79995755 -0.65637543 8.92552281 -0.31342132 13 0 C10 2 10 2 7.3125 3.5 C6.549375 3.995 5.78625 4.49 5 5 C5 5.66 5 6.32 5 7 C5.33 6.484375 5.66 5.96875 6 5.4375 C8 4 8 4 11.8125 4 C16.48791143 4.80076107 18.77440397 6.54400425 22 10 C24.74407999 15.61289088 24.94446697 21.06903018 23.0546875 26.93359375 C17.24914074 41.55699926 17.24914074 41.55699926 11.34375 44.1796875 C10.5703125 44.45039063 9.796875 44.72109375 9 45 C9.03306277 42.24677259 9.10025426 39.50159629 9.1875 36.75 C9.19330078 35.97269531 9.19910156 35.19539063 9.20507812 34.39453125 C9.42965643 28.55549543 9.42965643 28.55549543 12.55078125 25.515625 C13.35902344 25.01546875 14.16726562 24.5153125 15 24 C15 23.67 15 23.34 15 23 C13.68 23.33 12.36 23.66 11 24 C11.66 23.01 12.32 22.02 13 21 C13.24055468 18.94290404 13.24055468 18.94290404 13.125 16.8125 C13.08375 15.554375 13.0425 14.29625 13 13 C10.525 12.505 10.525 12.505 8 12 C7.67 12.99 7.34 13.98 7 15 C7.99 15.33 8.98 15.66 10 16 C10 15.01 10 14.02 10 13 C10.99 13.33 11.98 13.66 13 14 C12.6875 16.875 12.6875 16.875 12 20 C8.23124125 22.51250583 6.46849866 22.53016086 2 22 C-0.97361628 20.21847933 -3.42653612 18.14692775 -5 15 C-5.51212418 8.85450978 -4.99939364 5.96894361 -1 1 C-0.67 0.67 -0.34 0.34 0 0 Z " fill="#050401" transform="translate(217,262)"/>
<path d="M0 0 C3.38705878 1.21283327 6.6985528 2.57180855 10 4 C10 4.66 10 5.32 10 6 C7.69 5.34 5.38 4.68 3 4 C3 6.31 3 8.62 3 11 C4.32 11.33 5.64 11.66 7 12 C7.33 11.34 7.66 10.68 8 10 C8.33 11.98 8.66 13.96 9 16 C8.401875 15.690625 7.80375 15.38125 7.1875 15.0625 C4.91043228 13.89790296 4.91043228 13.89790296 2 13 C2.33 14.32 2.66 15.64 3 17 C1.88625 17.268125 0.7725 17.53625 -0.375 17.8125 C-4.21840951 18.65809019 -4.21840951 18.65809019 -6 22 C-6.16699232 25.12521833 -6.16699232 25.12521833 -6 28 C-4.35 27.34 -2.7 26.68 -1 26 C-1.2165625 27.794375 -1.2165625 27.794375 -1.4375 29.625 C-2.1590461 36.06737585 -2.56763736 42.53295884 -3 49 C-3.99 49 -4.98 49 -6 49 C-6.66 46.36 -7.32 43.72 -8 41 C-8.99 42.98 -9.98 44.96 -11 47 C-11.33 47 -11.66 47 -12 47 C-12.79636261 43.81454956 -12.9655854 41.120758 -12.75 37.875 C-12.87375 35.956875 -12.87375 35.956875 -13 34 C-14.22976562 33.33097656 -14.22976562 33.33097656 -15.484375 32.6484375 C-16.72960937 31.83246094 -16.72960937 31.83246094 -18 31 C-19.3914949 24.22561693 -18.73762908 16.85561889 -15 11 C-11.86161112 8.28006297 -9.9431642 7.11096049 -5.8125 6.625 C-3 7 -3 7 0 9 C-0.37904208 5.70924004 -0.37904208 5.70924004 -2 3 C-5.00190756 2.64977745 -7.09743333 2.4074155 -10 3 C-12.89299854 5.72152236 -12.89299854 5.72152236 -15 9 C-15.98290968 10.01680311 -16.97334787 11.02738219 -18 12 C-16.73189061 6.08215617 -13.7151965 3.41406916 -9 0 C-5.94328036 -1.52835982 -3.20201188 -0.77871069 0 0 Z " fill="#221705" transform="translate(247,193)"/>
<path d="M0 0 C0.66 0 1.32 0 2 0 C1.34755235 4.7535472 -0.54351329 8.64912394 -2.59765625 12.92578125 C-2.95137802 13.67337204 -3.30509979 14.42096283 -3.66954041 15.19120789 C-4.79533071 17.56747933 -5.92878765 19.93999953 -7.0625 22.3125 C-7.82928558 23.92749255 -8.59556732 25.54272442 -9.36132812 27.15820312 C-11.2350604 31.10826481 -13.11567487 35.05498122 -15 39 C-15.103125 38.360625 -15.20625 37.72125 -15.3125 37.0625 C-15.6528125 36.0415625 -15.6528125 36.0415625 -16 35 C-16.99 34.67 -17.98 34.34 -19 34 C-19.99 34.495 -19.99 34.495 -21 35 C-22.26179396 32.06968824 -21.98304749 30.95389165 -20.86010742 27.8996582 C-20.28782203 26.69397365 -19.70207669 25.49461741 -19.10546875 24.30078125 C-18.64434441 23.34730049 -18.64434441 23.34730049 -18.17390442 22.3745575 C-17.52285057 21.03463457 -16.86602411 19.69750323 -16.20385742 18.36303711 C-15.18902746 16.31558171 -14.19381899 14.25945848 -13.20117188 12.20117188 C-8.29293807 2.14646904 -8.29293807 2.14646904 -6 1 C-5.71125 1.969375 -5.4225 2.93875 -5.125 3.9375 C-4.35785318 7.10664203 -4.35785318 7.10664203 -2 8 C-1.855625 7.4225 -1.71125 6.845 -1.5625 6.25 C-1.04166667 4.16666667 -0.52083333 2.08333333 0 0 Z " fill="#D9C66A" transform="translate(353,209)"/>
<path d="M0 0 C1.27875 0.103125 2.5575 0.20625 3.875 0.3125 C4.95394531 0.39951172 4.95394531 0.39951172 6.0546875 0.48828125 C8 1 8 1 10 4 C10.41855562 6.69615048 10.3978155 9.30053771 10 12 C8.4375 13.6875 8.4375 13.6875 7 15 C7.28604898 16.67542976 7.61781233 18.34385343 8 20 C5.34287748 22.65712252 3.76390038 22.35163234 0.0625 22.5625 C-3.24470948 22.75940555 -5.84884164 22.94961388 -9 24 C-9.75 21.3125 -9.75 21.3125 -10 18 C-8.08396476 14.68378516 -6.95208276 13.28129718 -3.25 12.1875 C-2.5075 12.125625 -1.765 12.06375 -1 12 C-1 11.01 -1 10.02 -1 9 C1.16874252 9.50603992 2.99967627 9.99983813 5 11 C4.67 10.01 4.34 9.02 4 8 C1.98491642 7.26676204 1.98491642 7.26676204 0 7 C0 4.69 0 2.38 0 0 Z " fill="#C1AC5B" transform="translate(250,197)"/>
<path d="M0 0 C0.33 0 0.66 0 1 0 C1.33 1.65 1.66 3.3 2 5 C2.33 5 2.66 5 3 5 C3.33 6.65 3.66 8.3 4 10 C4.66 9.34 5.32 8.68 6 8 C8.625 7.875 8.625 7.875 11 8 C10.72671875 8.66773438 10.4534375 9.33546875 10.171875 10.0234375 C9.057242 12.85460531 8.02393693 15.70851238 6.99536133 18.57177734 C-0.07582749 38.05055166 -0.07582749 38.05055166 -6 42 C-6.99 41.34 -7.98 40.68 -9 40 C-8.34 40 -7.68 40 -7 40 C-7.495 38.515 -7.495 38.515 -8 37 C-8.66 37.99 -9.32 38.98 -10 40 C-10.66 39.67 -11.32 39.34 -12 39 C-10.68 36.03 -9.36 33.06 -8 30 C-5.525 30.99 -5.525 30.99 -3 32 C0.17377251 27.39291087 2.14399446 24.19435666 2.125 18.5625 C2.12757813 17.80066406 2.13015625 17.03882813 2.1328125 16.25390625 C2.05084425 13.67907285 2.05084425 13.67907285 1 10 C0.67 12.97 0.34 15.94 0 19 C-0.33 19 -0.66 19 -1 19 C-1.33 20.98 -1.66 22.96 -2 25 C-2.33 25 -2.66 25 -3 25 C-3.66 19.06 -4.32 13.12 -5 7 C-4.34 7.66 -3.68 8.32 -3 9 C-3.33 6.36 -3.66 3.72 -4 1 C-2 3 -2 3 -1 6 C-0.67 4.02 -0.34 2.04 0 0 Z " fill="#BBA053" transform="translate(247,259)"/>
<path d="M0 0 C1.32 0.66 2.64 1.32 4 2 C3.96744792 3.98567708 3.93489583 5.97135417 3.90234375 7.95703125 C3.91736783 10.20305461 3.91736783 10.20305461 5 13 C5.474375 12.175 5.94875 11.35 6.4375 10.5 C6.953125 9.675 7.46875 8.85 8 8 C8.33 8 8.66 8 9 8 C9.3403125 9.85625 9.3403125 9.85625 9.6875 11.75 C10.53681638 15.71760938 11.9032348 19.08210359 13.625 22.75 C16.47061739 29.22565716 16.50606889 35.02749532 16 42 C13.68756475 39.68756475 13.17863812 37.99950911 12.0625 34.9375 C9.41432738 28.33706976 5.73699114 22.6571974 1.74633789 16.78881836 C1.27832764 16.0953833 0.81031738 15.40194824 0.328125 14.6875 C-0.0956543 14.07261719 -0.51943359 13.45773438 -0.95605469 12.82421875 C-2.06085403 10.893662 -2.56483483 9.17222944 -3 7 C-2.01 6.34 -1.02 5.68 0 5 C0.25030977 2.41619823 0.25030977 2.41619823 0 0 Z " fill="#C9B462" transform="translate(231,225)"/>
<path d="M0 0 C5.61 0 11.22 0 17 0 C16.01 0.495 16.01 0.495 15 1 C15.04640625 1.96421875 15.0928125 2.9284375 15.140625 3.921875 C15.17671875 5.18515625 15.2128125 6.4484375 15.25 7.75 C15.29640625 9.00296875 15.3428125 10.2559375 15.390625 11.546875 C15 15 15 15 13.1796875 17.4609375 C11 19 11 19 7.875 18.875 C5 18 5 18 3 16 C2.61127707 12.39547828 2.49218475 8.80930789 2.34375 5.1875 C2.32728393 1.90914165 2.32728393 1.90914165 0 0 Z " fill="#030303" transform="translate(374,355)"/>
<path d="M0 0 C3.35278215 2.8233955 3.94113925 4.58797476 4.5625 8.9375 C4.35871771 13.60677249 2.22261953 15.77738047 -1 19 C-4.68268739 18.50233954 -6.65028767 17.93714041 -9 15 C-10.72973286 11.54053429 -10.47703703 7.78270206 -10 4 C-7.37166185 -0.14468709 -4.77540339 -0.89538814 0 0 Z " fill="#0F0F0F" transform="translate(357,355)"/>
<path d="M0 0 C3.80097811 0.54299687 5.57457897 2.07276772 8 5 C10.29992803 10.36649873 9.42062903 16.4905808 7.5 21.8125 C4.92462652 27.79071353 1.14742055 33.00791027 -3 38 C-3.33 38 -3.66 38 -4 38 C-3.96693723 35.24677259 -3.89974574 32.50159629 -3.8125 29.75 C-3.80669922 28.97269531 -3.80089844 28.19539063 -3.79492188 27.39453125 C-3.57032867 21.55510797 -3.57032867 21.55510797 -0.51171875 18.578125 C0.31714844 18.05734375 1.14601562 17.5365625 2 17 C3.16343227 14.67313547 3.19895988 13.15278587 3.25 10.5625 C3.27578125 9.78003906 3.3015625 8.99757813 3.328125 8.19140625 C2.92309434 5.48638007 1.94015134 4.83293245 0 3 C0 2.01 0 1.02 0 0 Z " fill="#B4984D" transform="translate(230,269)"/>
<path d="M0 0 C3.1875 0.3125 3.1875 0.3125 5.5625 2.3125 C6.09875 2.9725 6.635 3.6325 7.1875 4.3125 C5.69279266 7.30191468 3.11192937 7.85028532 0.1875 9.3125 C-0.93506131 11.55762262 -0.94663762 12.82706649 -0.9375 15.3125 C-0.94007813 16.01375 -0.94265625 16.715 -0.9453125 17.4375 C-0.92627236 19.40403775 -0.92627236 19.40403775 0.1875 21.3125 C1.1775 21.6425 2.1675 21.9725 3.1875 22.3125 C3.5175 21.3225 3.8475 20.3325 4.1875 19.3125 C3.8575 25.9125 3.5275 32.5125 3.1875 39.3125 C1.1875 37.3125 1.1875 37.3125 1 33.8125 C1.1875 30.3125 1.1875 30.3125 2.1875 28.3125 C0.2075 28.9725 -1.7725 29.6325 -3.8125 30.3125 C-3.8125 30.9725 -3.8125 31.6325 -3.8125 32.3125 C-4.4725 32.3125 -5.1325 32.3125 -5.8125 32.3125 C-5.8125 25.51825413 -5.48294955 18.89005565 -4.875 12.125 C-4.78798828 11.10212891 -4.70097656 10.07925781 -4.61132812 9.02539062 C-4.52431641 8.05408203 -4.43730469 7.08277344 -4.34765625 6.08203125 C-4.269104 5.19104736 -4.19055176 4.30006348 -4.10961914 3.38208008 C-3.65194427 0.19415086 -3.28343033 0.36482559 0 0 Z " fill="#B8A259" transform="translate(240.8125,201.6875)"/>
<path d="M0 0 C10.44954645 4.86444404 16.20861911 10.25383582 21 21 C20.67 21.99 20.34 22.98 20 24 C19.72027344 23.5153125 19.44054687 23.030625 19.15234375 22.53125 C13.87282805 13.49700517 13.87282805 13.49700517 6 7 C6 9.64 6 12.28 6 15 C3 16 3 16 0.5625 15.3125 C-2.99083054 13.49250143 -5.36859428 11.86211178 -6.69140625 7.9609375 C-7.18971317 5.98861779 -7.60104199 3.99479005 -8 2 C-5.36 2 -2.72 2 0 2 C0 1.34 0 0.68 0 0 Z " fill="#C1A24D" transform="translate(222,236)"/>
<path d="M0 0 C1.65 0 3.3 0 5 0 C5 23.5 5 23.5 4 28 C4.66 28 5.32 28 6 28 C6 27.34 6 26.68 6 26 C9 24 9 24 12 24 C11.98839844 24.61488281 11.97679687 25.22976562 11.96484375 25.86328125 C11.95582031 26.67152344 11.94679687 27.47976562 11.9375 28.3125 C11.92589844 29.11300781 11.91429687 29.91351563 11.90234375 30.73828125 C11.90342145 33.16861334 11.90342145 33.16861334 13 36 C12.01 36 11.02 36 10 36 C9.34 33.36 8.68 30.72 8 28 C7.01 29.98 6.02 31.96 5 34 C4.67 34 4.34 34 4 34 C3.20363739 30.81454956 3.0344146 28.120758 3.25 24.875 C3.12625 22.956875 3.12625 22.956875 3 21 C2.17886719 20.5565625 1.35773438 20.113125 0.51171875 19.65625 C-0.31714844 19.1096875 -1.14601562 18.563125 -2 18 C-2.55859375 15.0390625 -2.55859375 15.0390625 -2.4375 11.625 C-2.41558594 10.50351563 -2.39367187 9.38203125 -2.37109375 8.2265625 C-2.01446683 5.12578529 -1.31217292 2.81405759 0 0 Z " fill="#0A0703" transform="translate(231,206)"/>
<path d="M0 0 C3.4828403 3.15114122 6.17978745 5.80367036 7.0078125 10.5859375 C7.20526926 14.54823657 6.88176765 16.89109173 5 20.4375 C2.625 22.375 2.625 22.375 -0.625 22.6875 C-1.5325 22.584375 -2.44 22.48125 -3.375 22.375 C-3.375 21.385 -3.375 20.395 -3.375 19.375 C-1.395 19.045 0.585 18.715 2.625 18.375 C2.00517358 11.66323558 2.00517358 11.66323558 -1.625 6.375 C-2.5325 6.045 -3.44 5.715 -4.375 5.375 C-5.303125 5.024375 -6.23125 4.67375 -7.1875 4.3125 C-10.89582152 3.2218172 -14.61753855 2.28197345 -18.375 1.375 C-17.375 -0.625 -17.375 -0.625 -15.6171875 -1.23046875 C-10.08047091 -2.20469937 -5.12581587 -2.46798542 0 0 Z " fill="#C3AF61" transform="translate(257.375,190.625)"/>
<path d="M0 0 C2 1 2 1 2.6328125 2.84765625 C2.79523438 3.57855469 2.95765625 4.30945313 3.125 5.0625 C3.29257813 5.79597656 3.46015625 6.52945312 3.6328125 7.28515625 C3.75398437 7.85105469 3.87515625 8.41695313 4 9 C4.45375 8.236875 4.9075 7.47375 5.375 6.6875 C6.53824492 4.76367186 7.7529415 2.87058776 9 1 C10.38022451 9.10881901 11.09336122 15.85232617 7.265625 23.37109375 C5.74295959 25.33082052 4.26756624 26.05200487 2 27 C0 25 0 25 -0.125 22.4609375 C-0.08375 21.44257813 -0.0425 20.42421875 0 19.375 C0.10056975 14.15794416 -0.4703836 9.9712533 -2 5 C-1.01 4.67 -0.02 4.34 1 4 C0.67 2.68 0.34 1.36 0 0 Z " fill="#C3A855" transform="translate(240,265)"/>
<path d="M0 0 C4.67541143 0.80076107 6.96190397 2.54400425 10.1875 6 C12.93157999 11.61289088 13.13196697 17.06903018 11.2421875 22.93359375 C8.87617309 28.89327156 6.1765321 33.98521678 2.1875 39 C1.1975 38.67 0.2075 38.34 -0.8125 38 C-0.34199219 37.3709375 0.12851563 36.741875 0.61328125 36.09375 C6.40393644 28.13309773 9.97943515 21.97838295 9.1875 12 C8.73535694 8.16201995 8.73535694 8.16201995 7.1875 5 C4.18155579 3.46853622 4.18155579 3.46853622 1.1875 3 C1.661875 3.7425 2.13625 4.485 2.625 5.25 C5.03498162 9.49156764 5.46402519 10.89389922 4.25 15.75 C3.899375 16.8225 3.54875 17.895 3.1875 19 C1.8675 19.33 0.5475 19.66 -0.8125 20 C-0.1525 19.01 0.5075 18.02 1.1875 17 C1.42805468 14.94290404 1.42805468 14.94290404 1.3125 12.8125 C1.250625 10.9253125 1.250625 10.9253125 1.1875 9 C0.053125 8.566875 -1.08125 8.13375 -2.25 7.6875 C-3.425625 7.130625 -4.60125 6.57375 -5.8125 6 C-6.1425 5.01 -6.4725 4.02 -6.8125 3 C-4.81600335 -0.11952602 -3.78535717 0 0 0 Z " fill="#2F220A" transform="translate(228.8125,266)"/>
<path d="M0 0 C1.95803507 -0.05389087 3.91648909 -0.09274217 5.875 -0.125 C7.51082031 -0.15980469 7.51082031 -0.15980469 9.1796875 -0.1953125 C12 0 12 0 14 2 C14.125 4.625 14.125 4.625 14 7 C13.01 7.33 12.02 7.66 11 8 C11.99 9.485 11.99 9.485 13 11 C13.125 13.6875 13.125 13.6875 13 16 C13.66 16 14.32 16 15 16 C15.33 15.34 15.66 14.68 16 14 C15.67 15.32 15.34 16.64 15 18 C13.68 17.67 12.36 17.34 11 17 C10.5978125 15.2984375 10.5978125 15.2984375 10.1875 13.5625 C9.795625 12.386875 9.40375 11.21125 9 10 C8.01 9.67 7.02 9.34 6 9 C6 11.64 6 14.28 6 17 C6.66 17.33 7.32 17.66 8 18 C5.69 18 3.38 18 1 18 C1.66 17.67 2.32 17.34 3 17 C2.88630789 14.54066009 2.75957349 12.0832091 2.625 9.625 C2.5940625 8.92632812 2.563125 8.22765625 2.53125 7.5078125 C2.40500502 3.29814173 2.40500502 3.29814173 0 0 Z " fill="#A4A4A4" transform="translate(296,355)"/>
<path d="M0 0 C8.20996414 4.10498207 13.30190682 12.41135658 16.5390625 20.80859375 C17.05027994 23.23904276 16.79552559 24.67176177 16 27 C15.731875 26.41992188 15.46375 25.83984375 15.1875 25.2421875 C11.59791591 18.08663501 7.2770478 13.96031357 0 10.625 C-0.66 10.41875 -1.32 10.2125 -2 10 C-1.34 6.7 -0.68 3.4 0 0 Z " fill="#BBA857" transform="translate(228,243)"/>
<path d="M0 0 C3 1 3 1 4.82421875 4.08984375 C5.45565368 5.3673363 6.07636944 6.6501707 6.6875 7.9375 C7.00783203 8.58396484 7.32816406 9.23042969 7.65820312 9.89648438 C10 14.70490738 10 14.70490738 10 17 C5.71 17 1.42 17 -3 17 C-2.69268013 14.35346869 -2.37940678 11.707885 -2.0625 9.0625 C-1.97548828 8.30775391 -1.88847656 7.55300781 -1.79882812 6.77539062 C-1.11328125 1.11328125 -1.11328125 1.11328125 0 0 Z " fill="#AE9147" transform="translate(242,170)"/>
<path d="M0 0 C0.66 1.32 1.32 2.64 2 4 C1.34 4 0.68 4 0 4 C-0.12375 4.598125 -0.2475 5.19625 -0.375 5.8125 C-1 8 -1 8 -3 11 C-3.69269894 16.58186475 -3.70070688 21.49477781 -1.3125 26.625 C1.06516468 29.06692589 2.74012795 30.09447999 6 31 C6 31.33 6 31.66 6 32 C2.12353183 32.45075211 0.49436672 32.36790082 -2.6875 30 C-6.91028751 24.52178917 -8.85627337 18.97251173 -8 12 C-6.39336843 7.08123566 -4.7763416 2.55875443 0 0 Z " fill="#786031" transform="translate(213,259)"/>
<path d="M0 0 C0.66 0 1.32 0 2 0 C1.33358397 4.64690094 -0.4103055 8.53646098 -2.375 12.75 C-2.83132813 13.77673828 -2.83132813 13.77673828 -3.296875 14.82421875 C-4.11518218 16.59022355 -5.05088529 18.30071166 -6 20 C-6.99 20.33 -7.98 20.66 -9 21 C-9 19.68 -9 18.36 -9 17 C-8.01 17 -7.02 17 -6 17 C-6 16.34 -6 15.68 -6 15 C-8.64 15.66 -11.28 16.32 -14 17 C-12.26017005 11.18738629 -10.1889511 6.16830006 -7 1 C-6.731875 1.598125 -6.46375 2.19625 -6.1875 2.8125 C-5.01506533 4.97224808 -3.80630718 6.35790256 -2 8 C-1.855625 7.4225 -1.71125 6.845 -1.5625 6.25 C-1.04166667 4.16666667 -0.52083333 2.08333333 0 0 Z " fill="#CBB864" transform="translate(353,209)"/>
<path d="M0 0 C1.39973958 1.23697917 2.79947917 2.47395833 4.19921875 3.7109375 C8.15185812 6.54037566 12.0332066 7.27950891 16.8125 7.625 C17.78832031 7.69976562 18.76414062 7.77453125 19.76953125 7.8515625 C20.50558594 7.90054687 21.24164063 7.94953125 22 8 C21.67 8.99 21.34 9.98 21 11 C16.77084853 11.02953635 12.54172428 11.04697584 8.3125 11.0625 C6.54422852 11.07506836 6.54422852 11.07506836 4.74023438 11.08789062 C-3.22149544 11.10970358 -11.07229225 10.73348042 -19 10 C-19 9.67 -19 9.34 -19 9 C-11.30881404 8.24833087 -3.72772107 7.86309156 4 8 C2.68 7.34 1.36 6.68 0 6 C0 4.02 0 2.04 0 0 Z " fill="#B39653" transform="translate(384,310)"/>
<path d="M0 0 C0.33 0 0.66 0 1 0 C1.020625 1.051875 1.04125 2.10375 1.0625 3.1875 C2.15856961 7.64484974 3.25513037 8.77171708 7.0234375 11.12109375 C10.17146455 12.52090815 12.63370976 12.51789081 16 12 C18.02478463 10.89350331 18.02478463 10.89350331 19 9 C19 7.68 19 6.36 19 5 C18.34 4.67 17.68 4.34 17 4 C17 4.99 17 5.98 17 7 C15.68 6.67 14.36 6.34 13 6 C13.66 4.68 14.32 3.36 15 2 C19.875 2.875 19.875 2.875 21 4 C21.6984127 10.98412698 21.6984127 10.98412698 18.9375 15 C15.21801238 17.5324171 13.423816 17.69849726 9 17 C5.21828987 14.96369455 1.90471198 12.91524129 0 9 C-0.23534378 5.98236972 -0.1742084 3.01961234 0 0 Z " fill="#826A2F" transform="translate(210,271)"/>
<path d="M0 0 C2.64 0 5.28 0 8 0 C7.01 0.495 7.01 0.495 6 1 C6.33 5.95 6.66 10.9 7 16 C8.65 16 10.3 16 12 16 C12.02692484 13.70839681 12.04636124 11.41670454 12.0625 9.125 C12.07410156 7.84882813 12.08570313 6.57265625 12.09765625 5.2578125 C12.23176569 2.11335348 12.23176569 2.11335348 11 0 C12.98 0 14.96 0 17 0 C16.01 0.495 16.01 0.495 15 1 C15.04640625 1.96421875 15.0928125 2.9284375 15.140625 3.921875 C15.17671875 5.18515625 15.2128125 6.4484375 15.25 7.75 C15.29640625 9.00296875 15.3428125 10.2559375 15.390625 11.546875 C15 15 15 15 13.1796875 17.4609375 C11 19 11 19 7.875 18.875 C5 18 5 18 3 16 C2.61127707 12.39547828 2.49218475 8.80930789 2.34375 5.1875 C2.32728393 1.90914165 2.32728393 1.90914165 0 0 Z " fill="#AEAEAE" transform="translate(374,355)"/>
<path d="M0 0 C2 1.1875 2 1.1875 3 3 C3.1875 5.6875 3.1875 5.6875 3 8 C2.46375 7.67 1.9275 7.34 1.375 7 C-1.70340819 5.70382813 -3.67716638 5.60125997 -7 6 C-11.01950226 7.89153048 -13.16188669 9.67955553 -14.8125 13.75 C-16.10500778 17.79478904 -16.62313122 21.77906961 -17 26 C-17.33 26 -17.66 26 -18 26 C-18.77014012 16.75831854 -16.05375796 9.29176795 -10.6875 1.75 C-6.79577008 -0.78414971 -4.59533002 -0.59294581 0 0 Z " fill="#B79D59" transform="translate(245,195)"/>
<path d="M0 0 C0.33 0 0.66 0 1 0 C1 1.65 1 3.3 1 5 C3.86724686 4.42655063 4.8614515 4.1385485 7 2 C8.39211215 6.17633644 6.9535579 7.78960515 5.0625 11.6875 C4.21365234 13.45673828 4.21365234 13.45673828 3.34765625 15.26171875 C2.90292969 16.16535156 2.45820313 17.06898438 2 18 C1.4225 17.34 0.845 16.68 0.25 16 C-1.99653977 13.55709077 -1.99653977 13.55709077 -6 14 C-5.18836991 12.04130597 -4.37566899 10.08305564 -3.5625 8.125 C-3.11003906 7.03445313 -2.65757812 5.94390625 -2.19140625 4.8203125 C-1.50456537 3.19441376 -0.78934113 1.57868226 0 0 Z " fill="#D4C166" transform="translate(313,279)"/>
<path d="M0 0 C2.31 0 4.62 0 7 0 C6.01 0.495 6.01 0.495 5 1 C5.33 5.95 5.66 10.9 6 16 C7.65 16 9.3 16 11 16 C11 10.72 11 5.44 11 0 C12.65 0 14.3 0 16 0 C15.67 0.66 15.34 1.32 15 2 C14.76109847 5.5702507 14.61706436 9.13944106 14.4765625 12.71484375 C14 16 14 16 12.6484375 17.94921875 C11 19 11 19 8 18.875 C4.83223538 17.95106865 3.85302801 17.65108727 2 15 C1.70703125 11.64453125 1.70703125 11.64453125 1.8125 7.8125 C1.83957031 6.54019531 1.86664063 5.26789063 1.89453125 3.95703125 C1.92933594 2.98121094 1.96414062 2.00539063 2 1 C1.34 0.67 0.68 0.34 0 0 Z " fill="#6E6E6E" transform="translate(210,355)"/>
<path d="M0 0 C2.64 0 5.28 0 8 0 C7.01 0.495 7.01 0.495 6 1 C6.33 2.32 6.66 3.64 7 5 C7.66 4.67 8.32 4.34 9 4 C9 2.68 9 1.36 9 0 C10.98 0 12.96 0 15 0 C14.154375 0.886875 13.30875 1.77375 12.4375 2.6875 C10.28114413 5.24732898 10.28114413 5.24732898 10 8.5625 C11.50544888 12.23203166 13.18849231 15.18849231 16 18 C13.36 18 10.72 18 8 18 C8.66 17.67 9.32 17.34 10 17 C8.88145414 13.27385847 8.88145414 13.27385847 6 11 C5.67 13.31 5.34 15.62 5 18 C3.02 18 1.04 18 -1 18 C-0.38125 17.4225 0.2375 16.845 0.875 16.25 C2.87535014 14.1319822 4.0854298 12.74371061 5 10 C4.77404812 5.59393843 2.86991209 3.24022333 0 0 Z " fill="#ABABAB" transform="translate(239,355)"/>
<path d="M0 0 C2.50806657 2.11205606 3.75114713 3.71764593 4.3828125 6.97265625 C4.5 9.0625 4.5 9.0625 4 13 C2.68 14.32 1.36 15.64 0 17 C0 12.38 0 7.76 0 3 C-1.65 2.67 -3.3 2.34 -5 2 C-6.79904778 3.79904778 -6.17296543 6.45063451 -6.1875 8.875 C-6.20167969 9.94492187 -6.21585937 11.01484375 -6.23046875 12.1171875 C-6.2194778 15.19796434 -6.2194778 15.19796434 -4 18 C-5.875 17.75 -5.875 17.75 -8 17 C-10.59837268 12.86456178 -10.69625269 8.74322148 -10 4 C-7.37166185 -0.14468709 -4.77540339 -0.89538814 0 0 Z " fill="#C6C6C6" transform="translate(357,355)"/>
<path d="M0 0 C2.31 0 4.62 0 7 0 C6.01 0.495 6.01 0.495 5 1 C5 6.28 5 11.56 5 17 C10.82755814 15.75158623 10.82755814 15.75158623 12.375 12.875 C12.58125 12.25625 12.7875 11.6375 13 11 C13.33 11 13.66 11 14 11 C14 13.31 14 15.62 14 18 C9.38 18 4.76 18 0 18 C0.66 17.67 1.32 17.34 2 17 C2 11.72 2 6.44 2 1 C1.34 0.67 0.68 0.34 0 0 Z " fill="#808080" transform="translate(183,355)"/>
<path d="M0 0 C1.093125 0.226875 2.18625 0.45375 3.3125 0.6875 C2.3225 1.1825 2.3225 1.1825 1.3125 1.6875 C2.38651108 4.60267292 3.09060176 6.46560176 5.3125 8.6875 C5.0703125 11.0703125 5.0703125 11.0703125 4.4375 13.8125 C4.23382813 14.72257812 4.03015625 15.63265625 3.8203125 16.5703125 C3.56894531 17.61832031 3.56894531 17.61832031 3.3125 18.6875 C1.9925 19.0175 0.6725 19.3475 -0.6875 19.6875 C-0.0275 18.6975 0.6325 17.7075 1.3125 16.6875 C1.55305468 14.63040404 1.55305468 14.63040404 1.4375 12.5 C1.375625 10.6128125 1.375625 10.6128125 1.3125 8.6875 C0.178125 8.254375 -0.95625 7.82125 -2.125 7.375 C-3.300625 6.818125 -4.47625 6.26125 -5.6875 5.6875 C-6.0175 4.6975 -6.3475 3.7075 -6.6875 2.6875 C-4.58035839 -0.41123767 -3.86755884 -0.32775922 0 0 Z " fill="#130D05" transform="translate(228.6875,266.3125)"/>
<path d="M0 0 C0.94875 0.04125 1.8975 0.0825 2.875 0.125 C-0.875 2.125 -0.875 2.125 -3.125 2.125 C-2.01449074 5.34547686 -1.20099671 6.08383511 1.875 7.75 C2.865 8.20375 3.855 8.6575 4.875 9.125 C6.875 11.125 6.875 11.125 7.25 13.5625 C6.875 16.125 6.875 16.125 5.375 18 C1.61624159 19.69144129 -1.10567496 18.86187626 -5.125 18.125 C-5.125 15.815 -5.125 13.505 -5.125 11.125 C-4.568125 11.95 -4.01125 12.775 -3.4375 13.625 C-1.37572867 16.3995414 -1.37572867 16.3995414 1.625 16.4375 C2.3675 16.334375 3.11 16.23125 3.875 16.125 C3.875 14.805 3.875 13.485 3.875 12.125 C3.30910156 11.84785156 2.74320312 11.57070313 2.16015625 11.28515625 C1.42667969 10.92292969 0.69320313 10.56070312 -0.0625 10.1875 C-1.15884766 9.64802734 -1.15884766 9.64802734 -2.27734375 9.09765625 C-4.125 8.125 -4.125 8.125 -5.125 7.125 C-5.3125 4.6875 -5.3125 4.6875 -5.125 2.125 C-3.125 0.125 -3.125 0.125 0 0 Z " fill="#BABABA" transform="translate(410.125,354.875)"/>
<path d="M0 0 C0.33 0 0.66 0 1 0 C1.33 1.65 1.66 3.3 2 5 C2.33 5 2.66 5 3 5 C4.32594359 10.96674616 4.0884587 16.92583615 4 23 C3.67 23 3.34 23 3 23 C2.34 18.71 1.68 14.42 1 10 C0.67 12.97 0.34 15.94 0 19 C-0.33 19 -0.66 19 -1 19 C-1.33 20.98 -1.66 22.96 -2 25 C-2.33 25 -2.66 25 -3 25 C-3.66 19.06 -4.32 13.12 -5 7 C-4.34 7.66 -3.68 8.32 -3 9 C-3.33 6.36 -3.66 3.72 -4 1 C-2 3 -2 3 -1 6 C-0.67 4.02 -0.34 2.04 0 0 Z " fill="#826C26" transform="translate(247,259)"/>
<path d="M0 0 C6.17567923 4.66326799 10.5387447 10.03194656 14 17 C13.67 17.66 13.34 18.32 13 19 C11.700625 17.824375 11.700625 17.824375 10.375 16.625 C7.44943553 14.16613272 4.72463238 12.97549896 1 12 C0.67 8.04 0.34 4.08 0 0 Z " fill="#100B04" transform="translate(220,225)"/>
<path d="M0 0 C0.66 0 1.32 0 2 0 C4.12690583 8.08224216 5.17066046 15.6376376 5 24 C4.67 24 4.34 24 4 24 C3.87882812 23.33613281 3.75765625 22.67226562 3.6328125 21.98828125 C2.77452292 17.46575541 1.96028689 13.20061476 0 9 C-1.32 9.99 -2.64 10.98 -4 12 C-4.66 11.67 -5.32 11.34 -6 11 C-5.18993474 9.35296694 -4.3768779 7.70740494 -3.5625 6.0625 C-3.11003906 5.14597656 -2.65757812 4.22945312 -2.19140625 3.28515625 C-1 1 -1 1 0 0 Z " fill="#A1874B" transform="translate(365,170)"/>
<path d="M0 0 C3.38705878 1.21283327 6.6985528 2.57180855 10 4 C10 4.66 10 5.32 10 6 C7.69 5.34 5.38 4.68 3 4 C3 5.65 3 7.3 3 9 C2.360625 8.195625 1.72125 7.39125 1.0625 6.5625 C-1.42419779 3.08383865 -1.42419779 3.08383865 -5.75 2.5625 C-9.59760575 2.59003206 -9.86551389 2.86551389 -12.8125 5.8125 C-13.534375 6.864375 -14.25625 7.91625 -15 9 C-15.98290968 10.01680311 -16.97334787 11.02738219 -18 12 C-16.73189061 6.08215617 -13.7151965 3.41406916 -9 0 C-5.94328036 -1.52835982 -3.20201188 -0.77871069 0 0 Z " fill="#34260A" transform="translate(247,193)"/>
<path d="M0 0 C1.30324219 -0.00386719 1.30324219 -0.00386719 2.6328125 -0.0078125 C4.875 0.125 4.875 0.125 6.875 1.125 C7.5 3.6875 7.5 3.6875 7.875 6.125 C4.00347042 7.61404984 1.67019004 6.51170405 -2.125 5.125 C-4.78153204 4.41051756 -7.45049699 3.77056969 -10.125 3.125 C-9.125 1.125 -9.125 1.125 -7.3828125 0.5078125 C-4.88381769 0.0841075 -2.53431595 -0.00756512 0 0 Z " fill="#BEA35A" transform="translate(249.125,188.875)"/>
<path d="M0 0 C1.32 0.66 2.64 1.32 4 2 C3.90234375 4.97851562 3.90234375 4.97851562 3.8046875 7.95703125 C3.86745538 10.31359719 3.86745538 10.31359719 6 13 C5.75 15.625 5.75 15.625 5 18 C4.34 18.33 3.68 18.66 3 19 C1.96679519 17.40377344 0.94877571 15.79770894 -0.0625 14.1875 C-0.63097656 13.29417969 -1.19945312 12.40085938 -1.78515625 11.48046875 C-3 9 -3 9 -2 6 C-1.34 5.67 -0.68 5.34 0 5 C0 3.35 0 1.7 0 0 Z " fill="#B6A153" transform="translate(231,225)"/>
<path d="M0 0 C1.27875 0.103125 2.5575 0.20625 3.875 0.3125 C4.95394531 0.39951172 4.95394531 0.39951172 6.0546875 0.48828125 C8 1 8 1 10 4 C10.07905064 6.33199388 10.08798769 8.66832622 10 11 C7.13275314 10.42655063 6.1385485 10.1385485 4 8 C1.93125966 7.3574765 1.93125966 7.3574765 0 7 C0 4.69 0 2.38 0 0 Z " fill="#2B2417" transform="translate(250,197)"/>
<path d="M0 0 C0.33 0 0.66 0 1 0 C1.5757628 4.69491686 2.14518996 9.3905449 2.70898438 14.08691406 C2.90129233 15.68152134 3.09527257 17.27592793 3.29101562 18.87011719 C3.57350971 21.17330877 3.84980472 23.47717629 4.125 25.78125 C4.21249512 26.48366821 4.29999023 27.18608643 4.39013672 27.90979004 C4.94682879 32.63747226 5.07467796 37.23928017 5 42 C0.30317665 36.07791838 0.94672436 31.0013438 1.0625 23.6640625 C1.00935469 20.54841845 0.60687179 18.02495009 0 15 C-0.06774144 12.38518042 -0.09500258 9.80020744 -0.0625 7.1875 C-0.05798828 6.49462891 -0.05347656 5.80175781 -0.04882812 5.08789062 C-0.03713156 3.39188932 -0.01919924 1.69593297 0 0 Z " fill="#A48E4F" transform="translate(375,242)"/>
<path d="M0 0 C5.87711622 -0.48975968 10.09611773 0.62928552 15 4 C15.99 5.485 15.99 5.485 17 7 C16.34 7 15.68 7 15 7 C15 7.66 15 8.32 15 9 C14.38125 8.690625 13.7625 8.38125 13.125 8.0625 C8.81197706 6.5960722 4.5240004 6.33380974 0 6 C1.375 4.5 1.375 4.5 3 3 C3.66 3 4.32 3 5 3 C5 2.34 5 1.68 5 1 C3.35 1 1.7 1 0 1 C0 0.67 0 0.34 0 0 Z " fill="#C9B060" transform="translate(222,256)"/>
<path d="M0 0 C0.33 0 0.66 0 1 0 C0.67 6.6 0.34 13.2 0 20 C-2 18 -2 18 -2.1875 14.5 C-2 11 -2 11 -1 9 C-2.98 9.66 -4.96 10.32 -7 11 C-7 11.66 -7 12.32 -7 13 C-7.66 13 -8.32 13 -9 13 C-9.3125 10.6875 -9.3125 10.6875 -9 8 C-6.625 6.125 -6.625 6.125 -4 5 C-3.34 5.33 -2.68 5.66 -2 6 C-2 5.01 -2 4.02 -2 3 C-1.34 3 -0.68 3 0 3 C0 2.01 0 1.02 0 0 Z " fill="#B4A263" transform="translate(244,221)"/>
<path d="M0 0 C0 2.97 0 5.94 0 9 C-3.7794561 9 -5.79116175 7.95320589 -9 6 C-9.6796875 3.890625 -9.6796875 3.890625 -10 2 C-8.7090864 1.66376204 -7.41723903 1.33110751 -6.125 1 C-5.40570313 0.814375 -4.68640625 0.62875 -3.9453125 0.4375 C-2 0 -2 0 0 0 Z " fill="#303030" transform="translate(417,355)"/>
<path d="M0 0 C1.65 0 3.3 0 5 0 C4.67 0.66 4.34 1.32 4 2 C3.79439193 4.33022478 3.63400048 6.66456298 3.5 9 C3.11111111 15.77777778 3.11111111 15.77777778 2 18 C-4.0546875 18.1953125 -4.0546875 18.1953125 -6 18 C-8 16 -8 16 -8.1953125 12.5234375 C-8.18201493 11.14049032 -8.15816232 9.75761346 -8.125 8.375 C-8.11597656 7.66859375 -8.10695313 6.9621875 -8.09765625 6.234375 C-8.07407603 4.48943902 -8.03820461 2.74467705 -8 1 C-7.34 1 -6.68 1 -6 1 C-5.67 5.95 -5.34 10.9 -5 16 C-3.02 16.33 -1.04 16.66 1 17 C1.02691685 14.54159395 1.04679802 12.08348118 1.0625 9.625 C1.07087891 8.92632812 1.07925781 8.22765625 1.08789062 7.5078125 C1.1835442 3.62704624 1.1835442 3.62704624 0 0 Z " fill="#B3B3B3" transform="translate(278,355)"/>
<path d="M0 0 C2.64 0 5.28 0 8 0 C7.01 0.495 7.01 0.495 6 1 C6 6.28 6 11.56 6 17 C6.66 17.33 7.32 17.66 8 18 C5.69 18 3.38 18 1 18 C1.66 17.67 2.32 17.34 3 17 C2.88630789 14.54066009 2.75957349 12.0832091 2.625 9.625 C2.5940625 8.92632812 2.563125 8.22765625 2.53125 7.5078125 C2.40500502 3.29814173 2.40500502 3.29814173 0 0 Z " fill="#A6A6A6" transform="translate(325,355)"/>
<path d="M0 0 C0.99 0.33 1.98 0.66 3 1 C2.6875 3.875 2.6875 3.875 2 7 C-1.67346771 9.44897847 -3.66356399 9.31537716 -8 9 C-8.66 8.34 -9.32 7.68 -10 7 C-4.5 3 -4.5 3 0 3 C0 2.01 0 1.02 0 0 Z " fill="#191208" transform="translate(227,275)"/>
<path d="M0 0 C1.32 0.33 2.64 0.66 4 1 C3.34 3.64 2.68 6.28 2 9 C2.66 9 3.32 9 4 9 C4 8.34 4 7.68 4 7 C7 5 7 5 10 5 C9.98839844 5.61488281 9.97679687 6.22976562 9.96484375 6.86328125 C9.95582031 7.67152344 9.94679687 8.47976562 9.9375 9.3125 C9.92589844 10.11300781 9.91429687 10.91351563 9.90234375 11.73828125 C9.90342145 14.16861334 9.90342145 14.16861334 11 17 C10.01 17 9.02 17 8 17 C7.34 14.36 6.68 11.72 6 9 C5.01 10.98 4.02 12.96 3 15 C2.67 15 2.34 15 2 15 C1.21883684 11.87534738 0.95333073 9.01517832 1 5.8125 C1.28416697 2.19565595 1.28416697 2.19565595 0 0 Z " fill="#35280C" transform="translate(233,225)"/>
<path d="M0 0 C0.66 1.32 1.32 2.64 2 4 C1.34 4 0.68 4 0 4 C-0.12375 4.598125 -0.2475 5.19625 -0.375 5.8125 C-1 8 -1 8 -3 11 C-3.45394552 13.27912938 -3.45394552 13.27912938 -3.625 15.6875 C-3.69976562 16.49574219 -3.77453125 17.30398438 -3.8515625 18.13671875 C-3.90054688 18.75160156 -3.94953125 19.36648438 -4 20 C-4.33 20 -4.66 20 -5 20 C-6.17844951 15.43350814 -6.78730007 10.67300684 -6 6 C-3.5625 3 -3.5625 3 -1 1 C-0.67 0.67 -0.34 0.34 0 0 Z " fill="#A1823E" transform="translate(213,259)"/>
<path d="M0 0 C2.16874252 0.50603992 3.99967627 0.99983813 6 2 C6.33 1.34 6.66 0.68 7 0 C8.32 0.99 9.64 1.98 11 3 C10.484375 3.391875 9.96875 3.78375 9.4375 4.1875 C8.7259375 5.0846875 8.7259375 5.0846875 8 6 C8.23043864 8.65466049 8.23043864 8.65466049 9 11 C8.67 10.34 8.34 9.68 8 9 C5.69 9 3.38 9 1 9 C1.99 8.67 2.98 8.34 4 8 C4 7.01 4 6.02 4 5 C1.03 5 -1.94 5 -5 5 C-5 4.67 -5 4.34 -5 4 C-3.35 3.67 -1.7 3.34 0 3 C0 2.01 0 1.02 0 0 Z " fill="#AE9850" transform="translate(249,206)"/>
<path d="M0 0 C4.455 1.98 4.455 1.98 9 4 C8.67 5.65 8.34 7.3 8 9 C5.75 9.375 5.75 9.375 3 9 C0.625 6.1875 0.625 6.1875 -1 3 C-0.67 2.01 -0.34 1.02 0 0 Z " fill="#070707" transform="translate(406,363)"/>
<path d="M0 0 C3.22465159 2.70870734 4.85604779 6.23253718 6.6875 9.9375 C7.00783203 10.55818359 7.32816406 11.17886719 7.65820312 11.81835938 C9.35326073 15.21208879 10 17.12547582 10 21 C9.01 21.33 8.02 21.66 7 22 C7.020625 21.278125 7.04125 20.55625 7.0625 19.8125 C7.00179441 17.08074862 6.60741465 14.65743909 6 12 C5.01 11.67 4.02 11.34 3 11 C2.67 10.01 2.34 9.02 2 8 C1.34 8 0.68 8 0 8 C-1.125 2.25 -1.125 2.25 0 0 Z " fill="#EAE07E" transform="translate(281,248)"/>
<path d="M0 0 C1.16015625 0.11794922 1.16015625 0.11794922 2.34375 0.23828125 C4.5 0.6875 4.5 0.6875 7.5 2.6875 C4.86 2.3575 2.22 2.0275 -0.5 1.6875 C0.16 4.3275 0.82 6.9675 1.5 9.6875 C2.16 9.6875 2.82 9.6875 3.5 9.6875 C3.17 11.0075 2.84 12.3275 2.5 13.6875 C-0.02259061 11.71329865 -0.4929808 10.72004358 -1.1875 7.5 C-1.290625 6.571875 -1.39375 5.64375 -1.5 4.6875 C-5.955 3.6975 -5.955 3.6975 -10.5 2.6875 C-6.69657122 0.15188082 -4.44354441 -0.49619579 0 0 Z " fill="#A68C50" transform="translate(208.5,212.3125)"/>
<path d="M0 0 C2 3 2 3 2 6 C3.32 6 4.64 6 6 6 C5.39196574 9.12308506 4.37985958 11.19251662 2.5 13.75 C1.83484375 14.67039062 1.83484375 14.67039062 1.15625 15.609375 C0.7746875 16.06828125 0.393125 16.5271875 0 17 C-0.33 17 -0.66 17 -1 17 C-0.67 11.39 -0.34 5.78 0 0 Z " fill="#A98E4B" transform="translate(227,290)"/>
<path d="M0 0 C2 3 2 3 2 5 C0.125 5.625 0.125 5.625 -2 6 C-2.66 5.34 -3.32 4.68 -4 4 C-7.08347826 3.83318891 -7.08347826 3.83318891 -10 4 C-10.33 6.97 -10.66 9.94 -11 13 C-11.33 13 -11.66 13 -12 13 C-12 11.02 -12 9.04 -12 7 C-13.65 7 -15.3 7 -17 7 C-11.23036649 1.07853403 -11.23036649 1.07853403 -7.0625 0.8125 C-4 1 -4 1 -1 3 C-0.67 2.01 -0.34 1.02 0 0 Z " fill="#2A200C" transform="translate(248,199)"/>
<path d="M0 0 C1.98 0.495 1.98 0.495 4 1 C4 2.65 4 4.3 4 6 C3.01 6.33 2.02 6.66 1 7 C1.99 8.485 1.99 8.485 3 10 C3.125 12.6875 3.125 12.6875 3 15 C3.66 15 4.32 15 5 15 C5.33 14.34 5.66 13.68 6 13 C5.67 14.32 5.34 15.64 5 17 C3.68 16.67 2.36 16.34 1 16 C-1.0662997 10.28728907 -1.0006709 5.96345767 0 0 Z " fill="#C3C3C3" transform="translate(306,356)"/>
<path d="M0 0 C1.98 0 3.96 0 6 0 C5.01 0.495 5.01 0.495 4 1 C4.04640625 1.96421875 4.0928125 2.9284375 4.140625 3.921875 C4.17671875 5.18515625 4.2128125 6.4484375 4.25 7.75 C4.29640625 9.00296875 4.3428125 10.2559375 4.390625 11.546875 C4 15 4 15 2.1875 17.46875 C0 19 0 19 -3.25 18.75 C-4.1575 18.5025 -5.065 18.255 -6 18 C-4 16 -4 16 -1.375 15.875 C-0.59125 15.91625 0.1925 15.9575 1 16 C1.02692484 13.70839681 1.04636124 11.41670454 1.0625 9.125 C1.07410156 7.84882813 1.08570313 6.57265625 1.09765625 5.2578125 C1.23176569 2.11335348 1.23176569 2.11335348 0 0 Z " fill="#737373" transform="translate(385,355)"/>
<path d="M0 0 C0.78375 0.04125 1.5675 0.0825 2.375 0.125 C2.106875 0.785 1.83875 1.445 1.5625 2.125 C0.11794953 5.77439067 -1.25371178 9.44745433 -2.625 13.125 C-2.955 13.125 -3.285 13.125 -3.625 13.125 C-3.84651549 11.33491533 -4.05182213 9.54281838 -4.25 7.75 C-4.36601562 6.75226563 -4.48203125 5.75453125 -4.6015625 4.7265625 C-4.60929688 3.86804688 -4.61703125 3.00953125 -4.625 2.125 C-2.625 0.125 -2.625 0.125 0 0 Z " fill="#CAB86B" transform="translate(255.625,266.875)"/>
<path d="M0 0 C2 2 2 2 2.125 4.625 C2.08375 5.40875 2.0425 6.1925 2 7 C1.484375 6.690625 0.96875 6.38125 0.4375 6.0625 C-2.66665423 4.70940713 -5.65115007 4.38640576 -9 4 C-9 3.01 -9 2.02 -9 1 C-5.98675805 -0.50662097 -3.31713623 -0.17770373 0 0 Z " fill="#C2A758" transform="translate(246,196)"/>
<path d="M0 0 C4.875 0.875 4.875 0.875 6 2 C6.45714286 9.08571429 6.45714286 9.08571429 5 12 C1.72032242 13.63983879 -1.37138689 13.17845638 -5 13 C-5 12.67 -5 12.34 -5 12 C-3.329375 11.87625 -3.329375 11.87625 -1.625 11.75 C1.99418406 11.40527236 1.99418406 11.40527236 3.4375 9.1875 C4.16602736 6.73078202 4.16602736 6.73078202 4 3 C3.34 2.67 2.68 2.34 2 2 C2 2.99 2 3.98 2 5 C0.68 4.67 -0.64 4.34 -2 4 C-1.34 2.68 -0.68 1.36 0 0 Z " fill="#BFA569" transform="translate(225,273)"/>
<path d="M0 0 C2.35716404 2.15454249 3.78966144 4.19719874 5.1875 7.0625 C5.53167969 7.75472656 5.87585938 8.44695312 6.23046875 9.16015625 C7 11 7 11 7 13 C3.04 12.67 -0.92 12.34 -5 12 C-2 10 -2 10 1 10 C1 9.34 1 8.68 1 8 C1.66 8 2.32 8 3 8 C2.505 7.236875 2.01 6.47375 1.5 5.6875 C0 3 0 3 0 0 Z " fill="#B49955" transform="translate(245,174)"/>
<path d="M0 0 C2.64 0 5.28 0 8 0 C7.67 0.99 7.34 1.98 7 3 C-1.91 3 -10.82 3 -20 3 C-20 2.67 -20 2.34 -20 2 C-13.4 2 -6.8 2 0 2 C0 1.34 0 0.68 0 0 Z " fill="#8B754A" transform="translate(398,318)"/>
<path d="M0 0 C0.33 0 0.66 0 1 0 C1.84057704 8.40577035 -0.88361355 13.75957026 -5 21 C-5.66 20.01 -6.32 19.02 -7 18 C-5.84858407 14.12705551 -3.83737224 10.59122757 -2 7 C-1.34 7 -0.68 7 0 7 C0 4.69 0 2.38 0 0 Z " fill="#AF9C51" transform="translate(251,275)"/>
<path d="M0 0 C1.98 0 3.96 0 6 0 C6.70133599 1.57725347 7.385583 3.16211333 8.0625 4.75 C8.44535156 5.63171875 8.82820312 6.5134375 9.22265625 7.421875 C10.04600008 10.15256309 9.9773992 11.36901347 9 14 C8.68546875 13.40832031 8.3709375 12.81664062 8.046875 12.20703125 C5.66735376 7.81351764 3.29961953 3.78845205 0 0 Z " fill="#CBB469" transform="translate(235,256)"/>
<path d="M0 0 C2.2265625 0.1015625 2.2265625 0.1015625 5 1 C6.71254785 3.13627102 8.02697785 5.03236975 9.375 7.375 C9.74238281 7.96539062 10.10976562 8.55578125 10.48828125 9.1640625 C11.5234375 10.8984375 11.5234375 10.8984375 13 14 C12.67 14.99 12.34 15.98 12 17 C11.72027344 16.5153125 11.44054687 16.030625 11.15234375 15.53125 C8.29937644 10.76101527 5.11327329 6.6607306 1.35546875 2.56640625 C0 1 0 1 0 0 Z " fill="#655418" transform="translate(230,243)"/>
<path d="M0 0 C3.1875 0.3125 3.1875 0.3125 5.5625 2.3125 C6.09875 2.9725 6.635 3.6325 7.1875 4.3125 C6.8575 4.9725 6.5275 5.6325 6.1875 6.3125 C4.5375 5.9825 2.8875 5.6525 1.1875 5.3125 C1.1875 4.6525 1.1875 3.9925 1.1875 3.3125 C0.1975 2.9825 -0.7925 2.6525 -1.8125 2.3125 C-1.8125 4.2925 -1.8125 6.2725 -1.8125 8.3125 C-3.8125 6.3125 -3.8125 6.3125 -4 3.75 C-3.73148518 0.25930732 -3.52237185 0.39137465 0 0 Z " fill="#B09B57" transform="translate(240.8125,201.6875)"/>
<path d="M0 0 C2.31 0 4.62 0 7 0 C6.01 0.495 6.01 0.495 5 1 C5 6.28 5 11.56 5 17 C4.34 17 3.68 17 3 17 C2.95101562 15.94039063 2.90203125 14.88078125 2.8515625 13.7890625 C2.77653291 12.40101503 2.70098515 11.01299549 2.625 9.625 C2.5940625 8.92632812 2.563125 8.22765625 2.53125 7.5078125 C2.40500502 3.29814173 2.40500502 3.29814173 0 0 Z " fill="#BEBEBE" transform="translate(183,355)"/>
<path d="M0 0 C3.82946843 1.45255699 5.12050295 3.42895561 7 7 C6.01 7.99 5.02 8.98 4 10 C2.35 8.35 0.7 6.7 -1 5 C-0.34 4.67 0.32 4.34 1 4 C0.67 2.68 0.34 1.36 0 0 Z " fill="#BDAA65" transform="translate(256,191)"/>
<path d="M0 0 C2.625 1.875 2.625 1.875 5 5 C4.84567759 8.48555794 4.01461206 11.67181395 3 15 C1.68 15.33 0.36 15.66 -1 16 C-0.34 15.01 0.32 14.02 1 13 C1.31478577 11.04785375 1.31478577 11.04785375 1.25 9 C1.25773438 7.9790625 1.25773438 7.9790625 1.265625 6.9375 C1.09917603 4.67583993 1.09917603 4.67583993 -1 2 C-0.67 1.34 -0.34 0.68 0 0 Z " fill="#1F1805" transform="translate(229,270)"/>
<path d="M0 0 C1.32 0.33 2.64 0.66 4 1 C4.66 3.64 5.32 6.28 6 9 C5.01 9.495 5.01 9.495 4 10 C1.875 9.0625 1.875 9.0625 0 8 C0 5.36 0 2.72 0 0 Z " fill="#0A0A0A" transform="translate(302,364)"/>
<path d="M0 0 C2.31 0 4.62 0 7 0 C7.33 0.66 7.66 1.32 8 2 C6.35 2 4.7 2 3 2 C3.33 4.31 3.66 6.62 4 9 C6.475 9.99 6.475 9.99 9 11 C9 11.66 9 12.32 9 13 C6.09537874 11.6979284 3.89662946 10.5863129 2 8 C1.15490947 5.34925019 0.58145956 2.72838717 0 0 Z " fill="#A88F54" transform="translate(214,238)"/>
<path d="M0 0 C2.77982621 1.3899131 2.87463341 3.18658353 4 6 C4.66 6.33 5.32 6.66 6 7 C6.625 10.0625 6.625 10.0625 7 13 C7.99 13.33 8.98 13.66 10 14 C8.68 14 7.36 14 6 14 C4.33203125 11.91796875 4.33203125 11.91796875 2.8125 9.1875 C2.30332031 8.29417969 1.79414063 7.40085937 1.26953125 6.48046875 C0 4 0 4 -1 1 C-0.67 0.67 -0.34 0.34 0 0 Z " fill="#BCA661" transform="translate(294,305)"/>
<path d="M0 0 C5.27710354 2.3439244 9.15080717 4.66965806 13 9 C12.67 9.66 12.34 10.32 12 11 C11.113125 10.21625 10.22625 9.4325 9.3125 8.625 C4.52855503 4.6681857 0.14376076 3.72279538 -6 3 C-6 2.67 -6 2.34 -6 2 C-4.02 2 -2.04 2 0 2 C0 1.34 0 0.68 0 0 Z " fill="#3A2F0E" transform="translate(228,253)"/>
<path d="M0 0 C-0.33 1.32 -0.66 2.64 -1 4 C-9.57142857 4.28571429 -9.57142857 4.28571429 -13 2 C-8.49646738 0.24252386 -4.82360189 -0.19294408 0 0 Z " fill="#CBB56C" transform="translate(257,215)"/>
<path d="M0 0 C2.475 0.495 2.475 0.495 5 1 C6 4 6 4 5.0625 6.1875 C4.5365625 7.0846875 4.5365625 7.0846875 4 8 C2.68 7.67 1.36 7.34 0 7 C0 4.69 0 2.38 0 0 Z " fill="#C1AB67" transform="translate(250,197)"/>
<path d="M0 0 C0.98484375 0.01804688 1.9696875 0.03609375 2.984375 0.0546875 C4.10585937 0.08949219 4.10585937 0.08949219 5.25 0.125 C5.25 0.455 5.25 0.785 5.25 1.125 C1.95 1.785 -1.35 2.445 -4.75 3.125 C-4.75 3.785 -4.75 4.445 -4.75 5.125 C-7.75 6.125 -7.75 6.125 -10.75 5.125 C-9.75 2.125 -9.75 2.125 -8.046875 0.9453125 C-5.24061169 -0.0569244 -2.97306264 -0.07078721 0 0 Z " fill="#AB9151" transform="translate(244.75,187.875)"/>
<path d="M0 0 C0.66 0.33 1.32 0.66 2 1 C2 2.32 2 3.64 2 5 C0.35 5.33 -1.3 5.66 -3 6 C-3.20970559 10.14093698 -3.20970559 10.14093698 -2 14 C-2.99 14.33 -3.98 14.66 -5 15 C-5.42277492 8.86976372 -4.99795398 5.96715495 -1 1 C-0.67 0.67 -0.34 0.34 0 0 Z " fill="#271C0D" transform="translate(217,262)"/>
<path d="M0 0 C0.66 0 1.32 0 2 0 C2 0.66 2 1.32 2 2 C3.32 2.66 4.64 3.32 6 4 C6 4.99 6 5.98 6 7 C5.34 7 4.68 7 4 7 C3.34 7.66 2.68 8.32 2 9 C0.4375 7.3125 0.4375 7.3125 -1 5 C-0.6875 2.25 -0.6875 2.25 0 0 Z " fill="#C7AD5F" transform="translate(236,220)"/>
<path d="M0 0 C0.66 0.33 1.32 0.66 2 1 C2 4.3 2 7.6 2 11 C0.02 10.34 -1.96 9.68 -4 9 C-3.34 8.67 -2.68 8.34 -2 8 C-2.226875 7.236875 -2.45375 6.47375 -2.6875 5.6875 C-2.790625 4.800625 -2.89375 3.91375 -3 3 C-1.5625 1.1875 -1.5625 1.1875 0 0 Z " fill="#A78B45" transform="translate(219,219)"/>
<path d="M0 0 C1 2 1 2 0.0625 5.125 C-0.288125 6.07375 -0.63875 7.0225 -1 8 C-1.66 8 -2.32 8 -3 8 C-2.67 9.65 -2.34 11.3 -2 13 C-3.32 13.99 -4.64 14.98 -6 16 C-5.59683075 9.68368172 -3.28767869 5.35006016 0 0 Z " fill="#BAA85C" transform="translate(354,193)"/>
<path d="M0 0 C6.625 -0.25 6.625 -0.25 10 2 C9.67 2.99 9.34 3.98 9 5 C4.545 5.495 4.545 5.495 0 6 C0.99 5.01 1.98 4.02 3 3 C3.66 3 4.32 3 5 3 C5 2.34 5 1.68 5 1 C3.35 1 1.7 1 0 1 C0 0.67 0 0.34 0 0 Z " fill="#C2A859" transform="translate(222,256)"/>
<path d="M0 0 C0.99 0.33 1.98 0.66 3 1 C2.06409496 2.1055189 1.12620142 3.20935453 0.1875 4.3125 C-0.33457031 4.92738281 -0.85664063 5.54226562 -1.39453125 6.17578125 C-1.92433594 6.77777344 -2.45414062 7.37976563 -3 8 C-3.495 8.5775 -3.99 9.155 -4.5 9.75 C-5.2425 10.36875 -5.2425 10.36875 -6 11 C-9.1875 10.6875 -9.1875 10.6875 -12 10 C-12 9.67 -12 9.34 -12 9 C-9.69 8.34 -7.38 7.68 -5 7 C-4.9175 6.401875 -4.835 5.80375 -4.75 5.1875 C-3.77590452 2.34638817 -2.59505753 1.45017921 0 0 Z " fill="#2D2409" transform="translate(262,210)"/>
<path d="M0 0 C1.32 1.65 2.64 3.3 4 5 C3.01 6.485 3.01 6.485 2 8 C1.34 8 0.68 8 0 8 C-0.33 9.32 -0.66 10.64 -1 12 C-1.66 12 -2.32 12 -3 12 C-2.14285714 3.42857143 -2.14285714 3.42857143 0 0 Z " fill="#A48B45" transform="translate(226,200)"/>
<path d="M0 0 C2.64 0.33 5.28 0.66 8 1 C8.33 2.32 8.66 3.64 9 5 C7.68 5.33 6.36 5.66 5 6 C4.67 5.01 4.34 4.02 4 3 C2.35 2.67 0.7 2.34 -1 2 C-0.67 1.34 -0.34 0.68 0 0 Z " fill="#C3A74C" transform="translate(248,190)"/>
<path d="M0 0 C3 2 3 2 3.44140625 4.05859375 C3.48136719 4.84363281 3.52132813 5.62867188 3.5625 6.4375 C3.75414658 9.96263551 3.9447428 10.9171142 6 14 C4.125 13.75 4.125 13.75 2 13 C0.08815774 10.02602316 -0.22778191 7.74458497 -0.125 4.25 C-0.10695313 3.45078125 -0.08890625 2.6515625 -0.0703125 1.828125 C-0.04710937 1.22484375 -0.02390625 0.6215625 0 0 Z " fill="#ADADAD" transform="translate(347,359)"/>
<path d="M0 0 C2.475 0.495 2.475 0.495 5 1 C5 2.65 5 4.3 5 6 C3.35 6.33 1.7 6.66 0 7 C0 4.69 0 2.38 0 0 Z " fill="#070707" transform="translate(302,356)"/>
<path d="M0 0 C1.44977894 2.34112451 2.04314411 3.5796929 1.7578125 6.359375 C1.54898438 7.14828125 1.34015625 7.9371875 1.125 8.75 C0.92132813 9.54921875 0.71765625 10.3484375 0.5078125 11.171875 C0.34023437 11.77515625 0.17265625 12.3784375 0 13 C-0.99 12.34 -1.98 11.68 -3 11 C-2.88590407 9.54077307 -2.75834456 8.08259402 -2.625 6.625 C-2.55539063 5.81289062 -2.48578125 5.00078125 -2.4140625 4.1640625 C-2 2 -2 2 0 0 Z " fill="#C09C47" transform="translate(227,205)"/>
<path d="M0 0 C1.32 0.66 2.64 1.32 4 2 C3.67 3.65 3.34 5.3 3 7 C1.35 7.33 -0.3 7.66 -2 8 C-1.34 5.36 -0.68 2.72 0 0 Z " fill="#C4A550" transform="translate(228,245)"/>
<path d="M0 0 C0.33 0 0.66 0 1 0 C1 2.64 1 5.28 1 8 C0.01 8 -0.98 8 -2 8 C-2.33 8.99 -2.66 9.98 -3 11 C-3.66 11 -4.32 11 -5 11 C-3.77782954 6.95743617 -2.37245704 3.50711041 0 0 Z " fill="#201706" transform="translate(356,209)"/>
<path d="M0 0 C0.8353125 1.2375 0.8353125 1.2375 1.6875 2.5 C3.74485764 5.22074003 3.74485764 5.22074003 6.625 5.5 C9.36365337 5.21277591 9.36365337 5.21277591 11 2 C11.33 2.99 11.66 3.98 12 5 C10.5 6.5625 10.5 6.5625 8 8 C5.22562457 7.96823234 2.74713533 7.50364148 0 7 C0 4.69 0 2.38 0 0 Z " fill="#777777" transform="translate(405,366)"/>
<path d="M0 0 C1.32 0.66 2.64 1.32 4 2 C3.67 2.33 3.34 2.66 3 3 C2.63239269 5.32817964 2.29758419 7.6618385 2 10 C1.67 9.34 1.34 8.68 1 8 C0.34 8 -0.32 8 -1 8 C-0.67 9.65 -0.34 11.3 0 13 C-1.5625 11.1875 -1.5625 11.1875 -3 9 C-2.67 8.01 -2.34 7.02 -2 6 C-1.34 5.67 -0.68 5.34 0 5 C0 3.35 0 1.7 0 0 Z " fill="#C0AC5F" transform="translate(231,225)"/>
<path d="M0 0 C0.66 0 1.32 0 2 0 C2.99 2.31 3.98 4.62 5 7 C4.01 7.495 4.01 7.495 3 8 C2.67 6.35 2.34 4.7 2 3 C-0.97 5.475 -0.97 5.475 -4 8 C-4 4.06830895 -2.60580385 2.83572772 0 0 Z " fill="#C8BC6B" transform="translate(263,212)"/>
<path d="M0 0 C2.31 0 4.62 0 7 0 C6.01 0.495 6.01 0.495 5 1 C5.020625 2.216875 5.04125 3.43375 5.0625 4.6875 C5.06824116 7.91977322 4.78766315 10.84934741 4 14 C3.67 14 3.34 14 3 14 C2.92652344 12.73542969 2.92652344 12.73542969 2.8515625 11.4453125 C2.77679688 10.34960938 2.70203125 9.25390625 2.625 8.125 C2.55539063 7.03445313 2.48578125 5.94390625 2.4140625 4.8203125 C2.26746509 1.86953526 2.26746509 1.86953526 0 0 Z " fill="#D0D0D0" transform="translate(210,355)"/>
<path d="M0 0 C3.50647501 2.8689341 6.85281112 5.7317654 10 9 C6.87447554 9.26046037 5.40532546 9.27021697 2.75 7.5 C2.1725 7.005 1.595 6.51 1 6 C0.67 6 0.34 6 0 6 C0 4.02 0 2.04 0 0 Z " fill="#AA8F48" transform="translate(384,310)"/>
<path d="M0 0 C0.99 0.33 1.98 0.66 3 1 C1.02 4.96 -0.96 8.92 -3 13 C-3.66 13 -4.32 13 -5 13 C-4.54554036 11.58208592 -4.08625056 10.16571954 -3.625 8.75 C-3.24214844 7.56664062 -3.24214844 7.56664062 -2.8515625 6.359375 C-2.04826333 4.13372042 -1.10288338 2.09068328 0 0 Z " fill="#C0AD5F" transform="translate(308,304)"/>
<path d="M0 0 C1.89212737 0.22179785 3.78884472 0.40614015 5.6875 0.5625 C6.68136719 0.64628906 7.67523438 0.73007812 8.69921875 0.81640625 C9.83810547 0.90728516 9.83810547 0.90728516 11 1 C11 1.33 11 1.66 11 2 C4.4 2 -2.2 2 -9 2 C-4 -1.33333333 -4 -1.33333333 0 0 Z " fill="#B4955A" transform="translate(217,318)"/>
<path d="M0 0 C0.81404297 0.61488281 0.81404297 0.61488281 1.64453125 1.2421875 C2.35996094 1.78101563 3.07539063 2.31984375 3.8125 2.875 C4.52019531 3.40867187 5.22789062 3.94234375 5.95703125 4.4921875 C7.60456297 5.70814781 9.29624211 6.86416141 11 8 C8.3125 8.3125 8.3125 8.3125 5 8 C2.125 5.6875 2.125 5.6875 0 3 C0 2.01 0 1.02 0 0 Z " fill="#AF945A" transform="translate(208,283)"/>
<path d="M0 0 C0.33 0 0.66 0 1 0 C1.84681133 5.08086796 2.09038099 9.84828377 2 15 C-0.03104151 13.33240802 -0.9256922 12.48830838 -1.328125 9.84375 C-1.30234375 9.0703125 -1.2765625 8.296875 -1.25 7.5 C-1.23453125 6.7265625 -1.2190625 5.953125 -1.203125 5.15625 C-1 3 -1 3 0 0 Z " fill="#D8BE68" transform="translate(248,266)"/>
<path d="M0 0 C3.26954202 0.56371414 4.82575883 1.49962266 7 4 C6.67 4.99 6.34 5.98 6 7 C3.53199953 5.84826645 1.95216435 4.95216435 0 3 C0 2.01 0 1.02 0 0 Z " fill="#BAA460" transform="translate(230,269)"/>
<path d="M0 0 C0.66 0.33 1.32 0.66 2 1 C2 3.31 2 5.62 2 8 C1.01 8 0.02 8 -1 8 C-2.68236471 8.62599617 -4.3523962 9.28752268 -6 10 C-4.95125002 7.37812506 -4.35068687 6.20628639 -1.875 4.75 C-1.25625 4.5025 -0.6375 4.255 0 4 C0 2.68 0 1.36 0 0 Z " fill="#B19042" transform="translate(365,172)"/>
<path d="M0 0 C1.29640378 0.59393382 2.58698839 1.20057989 3.875 1.8125 C4.59429687 2.14894531 5.31359375 2.48539063 6.0546875 2.83203125 C8 4 8 4 10 7 C6.6936092 6.44893487 3.80017874 5.90012129 1 4 C0.390625 1.92578125 0.390625 1.92578125 0 0 Z " fill="#978349" transform="translate(222,236)"/>
<path d="M0 0 C0 2.64 0 5.28 0 8 C-3.465 6.02 -3.465 6.02 -7 4 C-2.25 0 -2.25 0 0 0 Z " fill="#1F1504" transform="translate(223,211)"/>
<path d="M0 0 C1.32 0.33 2.64 0.66 4 1 C4 3.64 4 6.28 4 9 C3.34 9 2.68 9 2 9 C2 7.68 2 6.36 2 5 C1.34 5 0.68 5 0 5 C0 3.35 0 1.7 0 0 Z " fill="#B39B5A" transform="translate(235,277)"/>
<path d="M0 0 C3.24745514 4.13312472 5 6.63932628 5 12 C4.01 12.33 3.02 12.66 2 13 C2.020625 12.278125 2.04125 11.55625 2.0625 10.8125 C2.00179441 8.08074862 1.60741465 5.65743909 1 3 C0.34 3 -0.32 3 -1 3 C-0.67 2.01 -0.34 1.02 0 0 Z " fill="#E0D681" transform="translate(286,257)"/>
<path d="M0 0 C3.82946843 1.45255699 5.12050295 3.42895561 7 7 C6.01 8.485 6.01 8.485 5 10 C2.375 10.1875 2.375 10.1875 0 10 C0.99 9.34 1.98 8.68 3 8 C2.65555119 5.52733235 2.65555119 5.52733235 2 3 C1.34 2.67 0.68 2.34 0 2 C0 1.34 0 0.68 0 0 Z " fill="#C7AD5B" transform="translate(228,243)"/>
<path d="M0 0 C0.66 0 1.32 0 2 0 C2 0.99 2 1.98 2 3 C2.66 3 3.32 3 4 3 C4.50559908 4.43554025 5.0042749 5.8735202 5.5 7.3125 C5.7784375 8.11300781 6.056875 8.91351563 6.34375 9.73828125 C7 12 7 12 7 15 C3.69383716 11.19791273 0 5.16418515 0 0 Z " fill="#D7C978" transform="translate(259,235)"/>
<path d="M0 0 C0.66 0 1.32 0 2 0 C2.66 1.32 3.32 2.64 4 4 C2.35 5.65 0.7 7.3 -1 9 C-1.125 2.25 -1.125 2.25 0 0 Z " fill="#9D864B" transform="translate(227,298)"/>
<path d="M0 0 C2.86453858 3.41016497 4.34703566 6.90694544 6 11 C5.34 11 4.68 11 4 11 C3.67 9.68 3.34 8.36 3 7 C1.35 6.67 -0.3 6.34 -2 6 C-2 5.34 -2 4.68 -2 4 C-1.34 4 -0.68 4 0 4 C0 2.68 0 1.36 0 0 Z " fill="#D2C372" transform="translate(268,220)"/>
<path d="M0 0 C2.27521866 2.16687491 4.15794162 4.45620509 6 7 C3.36 7 0.72 7 -2 7 C-1.34 6.67 -0.68 6.34 0 6 C-0.2784375 5.071875 -0.2784375 5.071875 -0.5625 4.125 C-1 2 -1 2 0 0 Z " fill="#888888" transform="translate(249,366)"/>
<path d="M0 0 C0.2475 0.61875 0.495 1.2375 0.75 1.875 C2.24624309 4.41861325 3.31072677 4.8926522 6 6 C8 7 8 7 10 8 C7.8125 8.8125 7.8125 8.8125 5 9 C2.1875 6.8125 2.1875 6.8125 0 4 C0 2.68 0 1.36 0 0 Z " fill="#24160C" transform="translate(215,244)"/>
<path d="M0 0 C2.90212286 3.38581001 4.29395475 5.73488687 6 10 C3.03 8.02 0.06 6.04 -3 4 C-2.01 2.68 -1.02 1.36 0 0 Z " fill="#2D2008" transform="translate(228,234)"/>
<path d="M0 0 C0.625 1.8125 0.625 1.8125 1 4 C0.01 5.485 0.01 5.485 -1 7 C-1.66 7 -2.32 7 -3 7 C-3.66 5.35 -4.32 3.7 -5 2 C-3.35 1.34 -1.7 0.68 0 0 Z " fill="#C6B46B" transform="translate(257,219)"/>
<path d="M0 0 C0.99 0.66 1.98 1.32 3 2 C1.55746343 5.36591866 -0.33264727 7.51047079 -3 10 C-3.33 9.34 -3.66 8.68 -4 8 C-3.22265625 6.0546875 -3.22265625 6.0546875 -2.0625 3.875 C-1.49208984 2.78832031 -1.49208984 2.78832031 -0.91015625 1.6796875 C-0.60980469 1.12539063 -0.30945313 0.57109375 0 0 Z " fill="#191707" transform="translate(319,286)"/>
<path d="M0 0 C1.65 0 3.3 0 5 0 C4.67 0.66 4.34 1.32 4 2 C3.77049681 4.204364 3.58924067 6.41392173 3.4375 8.625 C3.35371094 9.81351562 3.26992187 11.00203125 3.18359375 12.2265625 C3.12300781 13.14179688 3.06242188 14.05703125 3 15 C2.67 15 2.34 15 2 15 C1.90912109 13.62714844 1.90912109 13.62714844 1.81640625 12.2265625 C1.69072266 10.44378906 1.69072266 10.44378906 1.5625 8.625 C1.48128906 7.44164062 1.40007812 6.25828125 1.31640625 5.0390625 C1.18915064 2.08481099 1.18915064 2.08481099 0 0 Z " fill="#A3A3A3" transform="translate(221,355)"/>
<path d="M0 0 C0.33 0 0.66 0 1 0 C1.2295711 3.36704285 1.33943529 5.41370268 -0.375 8.375 C-0.91125 8.91125 -1.4475 9.4475 -2 10 C-2.66 10 -3.32 10 -4 10 C-2.8905928 6.51329166 -1.73662334 3.22515763 0 0 Z " fill="#C8B96D" transform="translate(313,279)"/>
<path d="M0 0 C2.97526665 2.55022856 4.50122302 5.40293526 6 9 C5.67 9.99 5.34 10.98 5 12 C4.67 10.68 4.34 9.36 4 8 C3.01 8 2.02 8 1 8 C0.67 5.36 0.34 2.72 0 0 Z " fill="#DBCC7A" transform="translate(295,277)"/>
<path d="M0 0 C-2.91403262 1.94268841 -5.85808576 3.46395304 -9 5 C-9 3.68 -9 2.36 -9 1 C-6.04335481 -0.4783226 -3.25770263 -0.06032783 0 0 Z " fill="#342509" transform="translate(230,262)"/>
<path d="M0 0 C2.475 0.495 2.475 0.495 5 1 C4.67 2.65 4.34 4.3 4 6 C3.01 6.33 2.02 6.66 1 7 C0.67 4.69 0.34 2.38 0 0 Z " fill="#BDA34D" transform="translate(237,263)"/>
<path d="M0 0 C0.66 0.99 1.32 1.98 2 3 C1.01 3 0.02 3 -1 3 C-1 3.99 -1 4.98 -1 6 C-3.97 5.505 -3.97 5.505 -7 5 C-4.702779 3.25728062 -2.40133271 1.60088848 0 0 Z " fill="#A88D4A" transform="translate(223,312)"/>
<path d="M0 0 C0.99 0 1.98 0 3 0 C2.98839844 0.61488281 2.97679687 1.22976562 2.96484375 1.86328125 C2.95582031 2.67152344 2.94679687 3.47976562 2.9375 4.3125 C2.92589844 5.11300781 2.91429687 5.91351563 2.90234375 6.73828125 C2.90342145 9.16861334 2.90342145 9.16861334 4 12 C3.01 12 2.02 12 1 12 C0.67 8.04 0.34 4.08 0 0 Z " fill="#231708" transform="translate(240,230)"/>
<path d="M0 0 C0.99 1.32 1.98 2.64 3 4 C2.01 4.33 1.02 4.66 0 5 C0 5.66 0 6.32 0 7 C-0.66 7 -1.32 7 -2 7 C-2.125 4.625 -2.125 4.625 -2 2 C-1.34 1.34 -0.68 0.68 0 0 Z " fill="#A8995A" transform="translate(237,227)"/>
<path d="M0 0 C0.99 0 1.98 0 3 0 C2.625 2.9375 2.625 2.9375 2 6 C1.01 6.495 1.01 6.495 0 7 C-0.38133299 5.0085944 -0.71325582 3.00720923 -1 1 C-0.67 0.67 -0.34 0.34 0 0 Z " fill="#B4974C" transform="translate(228,197)"/>
<path d="M0 0 C0.33 0.99 0.66 1.98 1 3 C1.66 3 2.32 3 3 3 C3 3.66 3 4.32 3 5 C3.66 5 4.32 5 5 5 C5.33 4.34 5.66 3.68 6 3 C5.67 4.32 5.34 5.64 5 7 C1.125 6.125 1.125 6.125 0 5 C-0.04063832 3.33382885 -0.042721 1.66611905 0 0 Z " fill="#929292" transform="translate(306,366)"/>
<path d="M0 0 C0.33 0 0.66 0 1 0 C1.08131463 1.43655854 1.13933559 2.8744483 1.1875 4.3125 C1.22230469 5.11300781 1.25710937 5.91351563 1.29296875 6.73828125 C0.93801608 9.47851584 0.10633718 10.29171079 -2 12 C-2.33 11.34 -2.66 10.68 -3 10 C-2.67 9.01 -2.34 8.02 -2 7 C-1.34 7 -0.68 7 0 7 C0 4.69 0 2.38 0 0 Z " fill="#908146" transform="translate(251,275)"/>
<path d="M0 0 C1.32 0.33 2.64 0.66 4 1 C3.34 2.32 2.68 3.64 2 5 C0.68 4.67 -0.64 4.34 -2 4 C-1.34 2.68 -0.68 1.36 0 0 Z " fill="#A2905C" transform="translate(225,273)"/>
<path d="M0 0 C0.66 0.33 1.32 0.66 2 1 C3.1577506 4.47325181 3.06866652 7.36067448 3 11 C1.45428722 8.68143083 0.20381448 6.49361571 -1 4 C-0.34 4 0.32 4 1 4 C0.67 2.68 0.34 1.36 0 0 Z " fill="#CEB762" transform="translate(240,265)"/>
<path d="M0 0 C1.98 0 3.96 0 6 0 C6.33 0.99 6.66 1.98 7 3 C6.01 3.66 5.02 4.32 4 5 C2.68 3.35 1.36 1.7 0 0 Z " fill="#C3B163" transform="translate(235,256)"/>
<path d="M0 0 C0.66 0 1.32 0 2 0 C5.10096154 5.45769231 5.10096154 5.45769231 4.58984375 8.203125 C4.39519531 8.79609375 4.20054687 9.3890625 4 10 C3.32845067 8.71086513 2.66291141 7.41859796 2 6.125 C1.62875 5.40570313 1.2575 4.68640625 0.875 3.9453125 C0 2 0 2 0 0 Z " fill="#120E02" transform="translate(275,232)"/>
<path d="M0 0 C0.66 0.66 1.32 1.32 2 2 C1.01 4.97 0.02 7.94 -1 11 C-1.33 11 -1.66 11 -2 11 C-2.25 3.375 -2.25 3.375 0 0 Z " fill="#281D11" transform="translate(246,225)"/>
<path d="M0 0 C2.31 0 4.62 0 7 0 C6.01 0.495 6.01 0.495 5 1 C4.53476937 2.89533342 4.53476937 2.89533342 4.375 5.0625 C4.189375 7.0115625 4.189375 7.0115625 4 9 C3.67 9 3.34 9 3 9 C2.87625 7.88625 2.7525 6.7725 2.625 5.625 C2.3534187 1.96896323 2.3534187 1.96896323 0 0 Z " fill="#CFCFCF" transform="translate(183,355)"/>
<path d="M0 0 C0.66 0.66 1.32 1.32 2 2 C0.02 4.97 0.02 4.97 -2 8 C-2.99 7.67 -3.98 7.34 -5 7 C-3.35 4.69 -1.7 2.38 0 0 Z " fill="#36290C" transform="translate(233,297)"/>
<path d="M0 0 C0 1.65 0 3.3 0 5 C-1.65 5 -3.3 5 -5 5 C-5 4.01 -5 3.02 -5 2 C-2 0 -2 0 0 0 Z " fill="#27210F" transform="translate(246,219)"/>
<path d="M0 0 C2.64 0 5.28 0 8 0 C7.01 1.485 7.01 1.485 6 3 C2.875 3.1875 2.875 3.1875 0 3 C0 2.01 0 1.02 0 0 Z " fill="#D5BD6B" transform="translate(254,210)"/>
<path d="M0 0 C0.33 0 0.66 0 1 0 C1 2.31 1 4.62 1 7 C0.01 7.495 0.01 7.495 -1 8 C-1.66 6.02 -2.32 4.04 -3 2 C-2.01 2 -1.02 2 0 2 C0 1.34 0 0.68 0 0 Z " fill="#110F07" transform="translate(266,206)"/>
<path d="M0 0 C2.475 0.495 2.475 0.495 5 1 C4.34 2.65 3.68 4.3 3 6 C2.01 5.67 1.02 5.34 0 5 C0 3.35 0 1.7 0 0 Z " fill="#BCA35A" transform="translate(250,197)"/>
<path d="M0 0 C1.98 0 3.96 0 6 0 C4.35 1.98 2.7 3.96 1 6 C0.01 5.67 -0.98 5.34 -2 5 C-1.34 4.67 -0.68 4.34 0 4 C0 2.68 0 1.36 0 0 Z " fill="#939393" transform="translate(248,355)"/>
<path d="M0 0 C0.33 0 0.66 0 1 0 C2.25 6.625 2.25 6.625 0 10 C-0.99 9.67 -1.98 9.34 -3 9 C-2.34 8.34 -1.68 7.68 -1 7 C-0.59952556 4.67724823 -0.2602896 2.34260643 0 0 Z " fill="#5C4D23" transform="translate(231,276)"/>
<path d="M0 0 C1.125 1.6875 1.125 1.6875 2 4 C1.125 6.75 1.125 6.75 0 9 C-0.66 8.34 -1.32 7.68 -2 7 C-1.67 6.67 -1.34 6.34 -1 6 C-1 5.175 -1 4.35 -1 3.5 C-1 1 -1 1 0 0 Z " fill="#CEB257" transform="translate(248,277)"/>
<path d="M0 0 C2.475 0.495 2.475 0.495 5 1 C5.33 2.32 5.66 3.64 6 5 C5.01 5.495 5.01 5.495 4 6 C2.68 4.02 1.36 2.04 0 0 Z " fill="#7E682E" transform="translate(230,243)"/>
</svg>
